# OBJ generated by ONSHAPE BY PTC INC, 1.219 Units = meters
mtllib hypertek stuff.mtl
g Part 1
v -0.00205967 0 0.0189383 
v 0 0 0.01905 
v 0 -0.3429 0.01905 
v -0.00409519 0 0.0186046 
v -0.00205967 -0.3429 0.0189383 
v -0.00608269 0 0.0180528 
v -0.00409519 -0.3429 0.0186046 
v -0.00799889 0 0.0172893 
v -0.00608269 -0.3429 0.0180528 
v -0.0098213 0 0.0163231 
v -0.00799889 -0.3429 0.0172893 
v -0.0115286 0 0.0151656 
v -0.0098213 -0.3429 0.0163231 
v -0.0131007 0 0.0138302 
v -0.0115286 -0.3429 0.0151656 
v -0.0145192 0 0.0123327 
v -0.0131007 -0.3429 0.0138302 
v -0.0157675 0 0.0106906 
v -0.0145192 -0.3429 0.0123327 
v -0.0168309 0 0.00892318 
v -0.0157675 -0.3429 0.0106906 
v -0.017697 0 0.00705113 
v -0.0168309 -0.3429 0.00892318 
v -0.0183556 0 0.00509641 
v -0.017697 -0.3429 0.00705113 
v -0.018799 0 0.00308195 
v -0.0183556 -0.3429 0.00509641 
v -0.0190221 0 0.00103135 
v -0.018799 -0.3429 0.00308195 
v -0.0190221 0 -0.00103135 
v -0.0190221 -0.3429 0.00103135 
v -0.018799 0 -0.00308195 
v -0.0190221 -0.3429 -0.00103135 
v -0.0183556 0 -0.00509641 
v -0.018799 -0.3429 -0.00308195 
v -0.017697 0 -0.00705113 
v -0.0183556 -0.3429 -0.00509641 
v -0.0168309 0 -0.00892318 
v -0.017697 -0.3429 -0.00705113 
v -0.0157675 0 -0.0106906 
v -0.0168309 -0.3429 -0.00892318 
v -0.0145192 0 -0.0123327 
v -0.0157675 -0.3429 -0.0106906 
v -0.0131007 0 -0.0138302 
v -0.0145192 -0.3429 -0.0123327 
v -0.0115286 0 -0.0151656 
v -0.0131007 -0.3429 -0.0138302 
v -0.0098213 0 -0.0163231 
v -0.0115286 -0.3429 -0.0151656 
v -0.00799889 0 -0.0172893 
v -0.0098213 -0.3429 -0.0163231 
v -0.00608269 0 -0.0180528 
v -0.00799889 -0.3429 -0.0172893 
v -0.00409519 0 -0.0186046 
v -0.00608269 -0.3429 -0.0180528 
v -0.00205967 0 -0.0189383 
v -0.00409519 -0.3429 -0.0186046 
v 6.99886e-18 0 -0.01905 
v -0.00205967 -0.3429 -0.0189383 
v 0.00205967 0 -0.0189383 
v 2.33295e-18 -0.3429 -0.01905 
v 0.00409519 0 -0.0186046 
v 0.00205967 -0.3429 -0.0189383 
v 0.00608269 0 -0.0180528 
v 0.00409519 -0.3429 -0.0186046 
v 0.00799889 0 -0.0172893 
v 0.00608269 -0.3429 -0.0180528 
v 0.0098213 0 -0.0163231 
v 0.00799889 -0.3429 -0.0172893 
v 0.0115286 0 -0.0151656 
v 0.0098213 -0.3429 -0.0163231 
v 0.0131007 0 -0.0138302 
v 0.0115286 -0.3429 -0.0151656 
v 0.0145192 0 -0.0123327 
v 0.0131007 -0.3429 -0.0138302 
v 0.0157675 0 -0.0106906 
v 0.0145192 -0.3429 -0.0123327 
v 0.0168309 0 -0.00892318 
v 0.0157675 -0.3429 -0.0106906 
v 0.017697 0 -0.00705113 
v 0.0168309 -0.3429 -0.00892318 
v 0.0183556 0 -0.00509641 
v 0.017697 -0.3429 -0.00705113 
v 0.018799 0 -0.00308195 
v 0.0183556 -0.3429 -0.00509641 
v 0.0190221 0 -0.00103135 
v 0.018799 -0.3429 -0.00308195 
v 0.0190221 0 0.00103135 
v 0.0190221 -0.3429 -0.00103135 
v 0.018799 0 0.00308195 
v 0.0190221 -0.3429 0.00103135 
v 0.0183556 0 0.00509641 
v 0.018799 -0.3429 0.00308195 
v 0.017697 0 0.00705113 
v 0.0183556 -0.3429 0.00509641 
v 0.0168309 0 0.00892318 
v 0.017697 -0.3429 0.00705113 
v 0.0157675 0 0.0106906 
v 0.0168309 -0.3429 0.00892318 
v 0.0145192 0 0.0123327 
v 0.0157675 -0.3429 0.0106906 
v 0.0131007 0 0.0138302 
v 0.0145192 -0.3429 0.0123327 
v 0.0115286 0 0.0151656 
v 0.0131007 -0.3429 0.0138302 
v 0.0098213 0 0.0163231 
v 0.0115286 -0.3429 0.0151656 
v 0.00799889 0 0.0172893 
v 0.0098213 -0.3429 0.0163231 
v 0.00608269 0 0.0180528 
v 0.00799889 -0.3429 0.0172893 
v 0.00409519 0 0.0186046 
v 0.00608269 -0.3429 0.0180528 
v 0.00205967 0 0.0189383 
v 0.00409519 -0.3429 0.0186046 
v 0.00205967 -0.3429 0.0189383 
v 0.0202974 -0.3429 0.0337345 
v 0.016531 -0.3429 0.0357312 
v 0.0270747 -0.3429 0.0285824 
v 0.0238257 -0.3429 0.0313422 
v 0.0125709 -0.3429 0.0373091 
v 0.0238257 -0.3429 -0.0313422 
v 0.0270747 -0.3429 -0.0285824 
v 0.00846339 -0.3429 0.0384496 
v 0.00425665 -0.3429 0.0391392 
v -0.0125709 -0.3429 0.0373091 
v -0.016531 -0.3429 0.0357312 
v -0.037935 -0.3429 -0.0105326 
v -0.0365738 -0.3429 -0.0145723 
v -0.0347839 -0.3429 -0.0184412 
v -0.0325861 -0.3429 -0.0220939 
v 0.016531 -0.3429 -0.0357312 
v 0.0202974 -0.3429 -0.0337345 
v 0.0325861 -0.3429 0.0220939 
v 0.0300063 -0.3429 0.0254876 
v 0 -0.3429 0.03937 
v -0.00425665 -0.3429 0.0391392 
v -0.00846339 -0.3429 0.0384496 
v -0.037935 -0.3429 0.0105326 
v -0.0388514 -0.3429 0.00636936 
v -0.0300063 -0.3429 -0.0254876 
v -0.0270747 -0.3429 -0.0285824 
v 0.0125709 -0.3429 -0.0373091 
v 0.0300063 -0.3429 -0.0254876 
v -0.0347839 -0.3429 0.0184412 
v -0.0365738 -0.3429 0.0145723 
v -0.0393123 -0.3429 0.00213145 
v -0.0393123 -0.3429 -0.00213145 
v -0.0388514 -0.3429 -0.00636936 
v 0.0325861 -0.3429 -0.0220939 
v 0.0347839 -0.3429 -0.0184412 
v 0.037935 -0.3429 -0.0105326 
v 0.0388514 -0.3429 -0.00636936 
v 0.0393123 -0.3429 -0.00213145 
v 0.0393123 -0.3429 0.00213145 
v -0.0202974 -0.3429 0.0337345 
v -0.0238257 -0.3429 0.0313422 
v -0.0270747 -0.3429 0.0285824 
v -0.0300063 -0.3429 0.0254876 
v -0.00846339 -0.3429 -0.0384496 
v -0.00425665 -0.3429 -0.0391392 
v 0.0365738 -0.3429 -0.0145723 
v 0.0388514 -0.3429 0.00636936 
v -0.0325861 -0.3429 0.0220939 
v -0.0238257 -0.3429 -0.0313422 
v -0.0202974 -0.3429 -0.0337345 
v -0.0125709 -0.3429 -0.0373091 
v 0.00425665 -0.3429 -0.0391392 
v 0.00846339 -0.3429 -0.0384496 
v 0.037935 -0.3429 0.0105326 
v 0.0365738 -0.3429 0.0145723 
v 0.0347839 -0.3429 0.0184412 
v -0.016531 -0.3429 -0.0357312 
v 1.44643e-17 -0.3429 -0.03937 
v 0 0 0.03937 
v 0.00425665 0 0.0391392 
v 0.00846339 0 0.0384496 
v 0.0125709 0 0.0373091 
v 0.016531 0 0.0357312 
v 0.0202974 0 0.0337345 
v 0.0238257 0 0.0313422 
v 0.0270747 0 0.0285824 
v 0.0300063 0 0.0254876 
v 0.0325861 0 0.0220939 
v 0.0347839 0 0.0184412 
v 0.0365738 0 0.0145723 
v 0.037935 0 0.0105326 
v 0.0388514 0 0.00636936 
v 0.0393123 0 0.00213145 
v 0.0393123 0 -0.00213145 
v 0.0388514 0 -0.00636936 
v 0.037935 0 -0.0105326 
v 0.0365738 0 -0.0145723 
v 0.0347839 0 -0.0184412 
v 0.0325861 0 -0.0220939 
v 0.0300063 0 -0.0254876 
v 0.0270747 0 -0.0285824 
v 0.0238257 0 -0.0313422 
v 0.0202974 0 -0.0337345 
v 0.016531 0 -0.0357312 
v 0.0125709 0 -0.0373091 
v 0.00846339 0 -0.0384496 
v 0.00425665 0 -0.0391392 
v 4.82143e-18 0 -0.03937 
v -0.00425665 0 -0.0391392 
v -0.00846339 0 -0.0384496 
v -0.0125709 0 -0.0373091 
v -0.016531 0 -0.0357312 
v -0.0202974 0 -0.0337345 
v -0.0238257 0 -0.0313422 
v -0.0270747 0 -0.0285824 
v -0.0300063 0 -0.0254876 
v -0.0325861 0 -0.0220939 
v -0.0347839 0 -0.0184412 
v -0.0365738 0 -0.0145723 
v -0.037935 0 -0.0105326 
v -0.0388514 0 -0.00636936 
v -0.0393123 0 -0.00213145 
v -0.0393123 0 0.00213145 
v -0.0388514 0 0.00636936 
v -0.037935 0 0.0105326 
v -0.0365738 0 0.0145723 
v -0.0347839 0 0.0184412 
v -0.0325861 0 0.0220939 
v -0.0300063 0 0.0254876 
v -0.0270747 0 0.0285824 
v -0.0238257 0 0.0313422 
v -0.0202974 0 0.0337345 
v -0.016531 0 0.0357312 
v -0.0125709 0 0.0373091 
v -0.00846339 0 0.0384496 
v -0.00425665 0 0.0391392 
vn 0.108119 0 -0.994138 
vn 2.44929e-16 0 -1 
vn 0.21497 0 -0.976621 
vn 0.108119 0 -0.994138 
vn 0.319302 0 -0.947653 
vn 0.21497 0 -0.976621 
vn 0.419889 0 -0.907575 
vn 0.319302 0 -0.947653 
vn 0.515554 0 -0.856857 
vn 0.419889 0 -0.907575 
vn 0.605174 0 -0.796093 
vn 0.515554 0 -0.856857 
vn 0.687699 0 -0.725995 
vn 0.605174 0 -0.796093 
vn 0.762162 0 -0.647386 
vn 0.687699 0 -0.725995 
vn 0.827689 0 -0.561187 
vn 0.762162 0 -0.647386 
vn 0.883512 0 -0.468408 
vn 0.827689 0 -0.561187 
vn 0.928977 0 -0.370138 
vn 0.883512 0 -0.468408 
vn 0.96355 0 -0.267528 
vn 0.928977 0 -0.370138 
vn 0.986827 0 -0.161782 
vn 0.96355 0 -0.267528 
vn 0.998533 0 -0.0541389 
vn 0.986827 0 -0.161782 
vn 0.998533 0 0.0541389 
vn 0.998533 0 -0.0541389 
vn 0.986827 0 0.161782 
vn 0.998533 0 0.0541389 
vn 0.96355 0 0.267528 
vn 0.986827 0 0.161782 
vn 0.928977 0 0.370138 
vn 0.96355 0 0.267528 
vn 0.883512 0 0.468408 
vn 0.928977 0 0.370138 
vn 0.827689 0 0.561187 
vn 0.883512 0 0.468408 
vn 0.762162 0 0.647386 
vn 0.827689 0 0.561187 
vn 0.687699 0 0.725995 
vn 0.762162 0 0.647386 
vn 0.605174 0 0.796093 
vn 0.687699 0 0.725995 
vn 0.515554 0 0.856857 
vn 0.605174 0 0.796093 
vn 0.419889 0 0.907575 
vn 0.515554 0 0.856857 
vn 0.319302 0 0.947653 
vn 0.419889 0 0.907575 
vn 0.21497 0 0.976621 
vn 0.319302 0 0.947653 
vn 0.108119 0 0.994138 
vn 0.21497 0 0.976621 
vn -1.22465e-16 0 1 
vn 0.108119 0 0.994138 
vn -0.108119 0 0.994138 
vn -1.22465e-16 0 1 
vn -0.21497 0 0.976621 
vn -0.108119 0 0.994138 
vn -0.319302 0 0.947653 
vn -0.21497 0 0.976621 
vn -0.419889 0 0.907575 
vn -0.319302 0 0.947653 
vn -0.515554 0 0.856857 
vn -0.419889 0 0.907575 
vn -0.605174 0 0.796093 
vn -0.515554 0 0.856857 
vn -0.687699 0 0.725995 
vn -0.605174 0 0.796093 
vn -0.762162 0 0.647386 
vn -0.687699 0 0.725995 
vn -0.827689 0 0.561187 
vn -0.762162 0 0.647386 
vn -0.883512 0 0.468408 
vn -0.827689 0 0.561187 
vn -0.928977 0 0.370138 
vn -0.883512 0 0.468408 
vn -0.96355 0 0.267528 
vn -0.928977 0 0.370138 
vn -0.986827 0 0.161782 
vn -0.96355 0 0.267528 
vn -0.998533 0 0.0541389 
vn -0.986827 0 0.161782 
vn -0.998533 0 -0.0541389 
vn -0.998533 0 0.0541389 
vn -0.986827 0 -0.161782 
vn -0.998533 0 -0.0541389 
vn -0.96355 0 -0.267528 
vn -0.986827 0 -0.161782 
vn -0.928977 0 -0.370138 
vn -0.96355 0 -0.267528 
vn -0.883512 0 -0.468408 
vn -0.928977 0 -0.370138 
vn -0.827689 0 -0.561187 
vn -0.883512 0 -0.468408 
vn -0.762162 0 -0.647386 
vn -0.827689 0 -0.561187 
vn -0.687699 0 -0.725995 
vn -0.762162 0 -0.647386 
vn -0.605174 0 -0.796093 
vn -0.687699 0 -0.725995 
vn -0.515554 0 -0.856857 
vn -0.605174 0 -0.796093 
vn -0.419889 0 -0.907575 
vn -0.515554 0 -0.856857 
vn -0.319302 0 -0.947653 
vn -0.419889 0 -0.907575 
vn -0.21497 0 -0.976621 
vn -0.319302 0 -0.947653 
vn -0.108119 0 -0.994138 
vn -0.21497 0 -0.976621 
vn 0 -1 0 
vn 0 0 1 
vn 0.108119 0 0.994138 
vn 0.21497 0 0.976621 
vn 0.319302 0 0.947653 
vn 0.419889 0 0.907575 
vn 0.515554 0 0.856857 
vn 0.605174 0 0.796093 
vn 0.687699 0 0.725995 
vn 0.762162 0 0.647386 
vn 0.827689 0 0.561187 
vn 0.883512 0 0.468408 
vn 0.928977 0 0.370138 
vn 0.96355 0 0.267528 
vn 0.986827 0 0.161782 
vn 0.998533 0 0.0541389 
vn 0.998533 0 -0.0541389 
vn 0.986827 0 -0.161782 
vn 0.96355 0 -0.267528 
vn 0.928977 0 -0.370138 
vn 0.883512 0 -0.468408 
vn 0.827689 0 -0.561187 
vn 0.762162 0 -0.647386 
vn 0.687699 0 -0.725995 
vn 0.605174 0 -0.796093 
vn 0.515554 0 -0.856857 
vn 0.419889 0 -0.907575 
vn 0.319302 0 -0.947653 
vn 0.21497 0 -0.976621 
vn 0.108119 0 -0.994138 
vn 1.22465e-16 0 -1 
vn -0.108119 0 -0.994138 
vn -0.21497 0 -0.976621 
vn -0.319302 0 -0.947653 
vn -0.419889 0 -0.907575 
vn -0.515554 0 -0.856857 
vn -0.605174 0 -0.796093 
vn -0.687699 0 -0.725995 
vn -0.762162 0 -0.647386 
vn -0.827689 0 -0.561187 
vn -0.883512 0 -0.468408 
vn -0.928977 0 -0.370138 
vn -0.96355 0 -0.267528 
vn -0.986827 0 -0.161782 
vn -0.998533 0 -0.0541389 
vn -0.998533 0 0.0541389 
vn -0.986827 0 0.161782 
vn -0.96355 0 0.267528 
vn -0.928977 0 0.370138 
vn -0.883512 0 0.468408 
vn -0.827689 0 0.561187 
vn -0.762162 0 0.647386 
vn -0.687699 0 0.725995 
vn -0.605174 0 0.796093 
vn -0.515554 0 0.856857 
vn -0.419889 0 0.907575 
vn -0.319302 0 0.947653 
vn -0.21497 0 0.976621 
vn -0.108119 0 0.994138 
vn 0 1 0 
usemtl 0.615686_0.811765_0.929412_0.000000_0.000000
o mesh0
f 1//1 2//2 3//2 
f 4//3 1//1 5//4 
f 6//5 4//3 7//6 
f 8//7 6//5 9//8 
f 10//9 8//7 11//10 
f 12//11 10//9 13//12 
f 14//13 12//11 15//14 
f 16//15 14//13 17//16 
f 18//17 16//15 19//18 
f 20//19 18//17 21//20 
f 22//21 20//19 23//22 
f 24//23 22//21 25//24 
f 26//25 24//23 27//26 
f 28//27 26//25 29//28 
f 30//29 28//27 31//30 
f 32//31 30//29 33//32 
f 34//33 32//31 35//34 
f 36//35 34//33 37//36 
f 38//37 36//35 39//38 
f 40//39 38//37 41//40 
f 42//41 40//39 43//42 
f 44//43 42//41 45//44 
f 46//45 44//43 47//46 
f 48//47 46//45 49//48 
f 50//49 48//47 51//50 
f 52//51 50//49 53//52 
f 54//53 52//51 55//54 
f 56//55 54//53 57//56 
f 58//57 56//55 59//58 
f 60//59 58//57 61//60 
f 62//61 60//59 63//62 
f 64//63 62//61 65//64 
f 66//65 64//63 67//66 
f 68//67 66//65 69//68 
f 70//69 68//67 71//70 
f 72//71 70//69 73//72 
f 74//73 72//71 75//74 
f 76//75 74//73 77//76 
f 78//77 76//75 79//78 
f 80//79 78//77 81//80 
f 82//81 80//79 83//82 
f 84//83 82//81 85//84 
f 86//85 84//83 87//86 
f 88//87 86//85 89//88 
f 90//89 88//87 91//90 
f 92//91 90//89 93//92 
f 94//93 92//91 95//94 
f 96//95 94//93 97//96 
f 98//97 96//95 99//98 
f 100//99 98//97 101//100 
f 102//101 100//99 103//102 
f 104//103 102//101 105//104 
f 106//105 104//103 107//106 
f 108//107 106//105 109//108 
f 110//109 108//107 111//110 
f 112//111 110//109 113//112 
f 114//113 112//111 115//114 
f 2//2 114//113 116//113 
f 116//113 3//2 2//2 
f 115//114 116//113 114//113 
f 113//112 115//114 112//111 
f 111//110 113//112 110//109 
f 109//108 111//110 108//107 
f 107//106 109//108 106//105 
f 105//104 107//106 104//103 
f 103//102 105//104 102//101 
f 101//100 103//102 100//99 
f 99//98 101//100 98//97 
f 97//96 99//98 96//95 
f 95//94 97//96 94//93 
f 93//92 95//94 92//91 
f 91//90 93//92 90//89 
f 89//88 91//90 88//87 
f 87//86 89//88 86//85 
f 85//84 87//86 84//83 
f 83//82 85//84 82//81 
f 81//80 83//82 80//79 
f 79//78 81//80 78//77 
f 77//76 79//78 76//75 
f 75//74 77//76 74//73 
f 73//72 75//74 72//71 
f 71//70 73//72 70//69 
f 69//68 71//70 68//67 
f 67//66 69//68 66//65 
f 65//64 67//66 64//63 
f 63//62 65//64 62//61 
f 61//60 63//62 60//59 
f 59//58 61//60 58//57 
f 57//56 59//58 56//55 
f 55//54 57//56 54//53 
f 53//52 55//54 52//51 
f 51//50 53//52 50//49 
f 49//48 51//50 48//47 
f 47//46 49//48 46//45 
f 45//44 47//46 44//43 
f 43//42 45//44 42//41 
f 41//40 43//42 40//39 
f 39//38 41//40 38//37 
f 37//36 39//38 36//35 
f 35//34 37//36 34//33 
f 33//32 35//34 32//31 
f 31//30 33//32 30//29 
f 29//28 31//30 28//27 
f 27//26 29//28 26//25 
f 25//24 27//26 24//23 
f 23//22 25//24 22//21 
f 21//20 23//22 20//19 
f 19//18 21//20 18//17 
f 17//16 19//18 16//15 
f 15//14 17//16 14//13 
f 13//12 15//14 12//11 
f 11//10 13//12 10//9 
f 9//8 11//10 8//7 
f 7//6 9//8 6//5 
f 5//4 7//6 4//3 
f 3//2 5//4 1//1 
o mesh1
f 117//115 109//115 107//115 
f 117//115 118//115 111//115 
f 119//115 105//115 103//115 
f 119//115 120//115 107//115 
f 111//115 109//115 117//115 
f 121//115 113//115 111//115 
f 122//115 73//115 71//115 
f 122//115 123//115 75//115 
f 107//115 105//115 119//115 
f 111//115 118//115 121//115 
f 124//115 115//115 113//115 
f 124//115 125//115 116//115 
f 126//115 9//115 7//115 
f 127//115 11//115 9//115 
f 128//115 37//115 35//115 
f 129//115 39//115 37//115 
f 129//115 130//115 41//115 
f 130//115 131//115 43//115 
f 132//115 133//115 71//115 
f 75//115 73//115 122//115 
f 134//115 101//115 99//115 
f 134//115 135//115 103//115 
f 107//115 120//115 117//115 
f 116//115 115//115 124//115 
f 136//115 3//115 116//115 
f 136//115 137//115 5//115 
f 138//115 7//115 5//115 
f 9//115 126//115 127//115 
f 139//115 27//115 25//115 
f 139//115 140//115 29//115 
f 37//115 128//115 129//115 
f 43//115 41//115 130//115 
f 141//115 45//115 43//115 
f 141//115 142//115 47//115 
f 143//115 67//115 65//115 
f 143//115 132//115 69//115 
f 71//115 133//115 122//115 
f 123//115 144//115 77//115 
f 103//115 101//115 134//115 
f 113//115 121//115 124//115 
f 5//115 3//115 136//115 
f 7//115 138//115 126//115 
f 145//115 23//115 21//115 
f 146//115 25//115 23//115 
f 29//115 27//115 139//115 
f 140//115 147//115 31//115 
f 147//115 148//115 33//115 
f 148//115 149//115 35//115 
f 41//115 39//115 129//115 
f 47//115 45//115 141//115 
f 69//115 67//115 143//115 
f 77//115 75//115 123//115 
f 150//115 79//115 77//115 
f 150//115 151//115 81//115 
f 152//115 85//115 83//115 
f 152//115 153//115 87//115 
f 154//115 89//115 87//115 
f 154//115 155//115 91//115 
f 103//115 135//115 119//115 
f 5//115 137//115 138//115 
f 156//115 13//115 11//115 
f 156//115 157//115 15//115 
f 158//115 17//115 15//115 
f 158//115 159//115 19//115 
f 23//115 145//115 146//115 
f 31//115 29//115 140//115 
f 35//115 33//115 148//115 
f 43//115 131//115 141//115 
f 160//115 57//115 55//115 
f 160//115 161//115 59//115 
f 71//115 69//115 132//115 
f 81//115 79//115 150//115 
f 162//115 83//115 81//115 
f 87//115 85//115 152//115 
f 91//115 89//115 154//115 
f 155//115 163//115 93//115 
f 116//115 125//115 136//115 
f 15//115 13//115 156//115 
f 19//115 17//115 158//115 
f 159//115 164//115 21//115 
f 25//115 146//115 139//115 
f 35//115 149//115 128//115 
f 165//115 49//115 47//115 
f 165//115 166//115 51//115 
f 167//115 55//115 53//115 
f 59//115 57//115 160//115 
f 168//115 63//115 61//115 
f 168//115 169//115 65//115 
f 77//115 144//115 150//115 
f 83//115 162//115 152//115 
f 93//115 91//115 155//115 
f 170//115 95//115 93//115 
f 171//115 97//115 95//115 
f 171//115 172//115 99//115 
f 11//115 127//115 156//115 
f 21//115 19//115 159//115 
f 33//115 31//115 147//115 
f 51//115 49//115 165//115 
f 173//115 53//115 51//115 
f 55//115 167//115 160//115 
f 65//115 63//115 168//115 
f 81//115 151//115 162//115 
f 93//115 163//115 170//115 
f 99//115 97//115 171//115 
f 15//115 157//115 158//115 
f 47//115 142//115 165//115 
f 53//115 173//115 167//115 
f 174//115 61//115 59//115 
f 65//115 169//115 143//115 
f 95//115 170//115 171//115 
f 21//115 164//115 145//115 
f 59//115 161//115 174//115 
f 87//115 153//115 154//115 
f 51//115 166//115 173//115 
f 99//115 172//115 134//115 
f 61//115 174//115 168//115 
o mesh2
f 175//116 136//116 125//117 
f 176//117 125//117 124//118 
f 177//118 124//118 121//119 
f 178//119 121//119 118//120 
f 179//120 118//120 117//121 
f 180//121 117//121 120//122 
f 181//122 120//122 119//123 
f 182//123 119//123 135//124 
f 183//124 135//124 134//125 
f 184//125 134//125 172//126 
f 185//126 172//126 171//127 
f 186//127 171//127 170//128 
f 187//128 170//128 163//129 
f 188//129 163//129 155//130 
f 189//130 155//130 154//131 
f 190//131 154//131 153//132 
f 191//132 153//132 152//133 
f 192//133 152//133 162//134 
f 193//134 162//134 151//135 
f 194//135 151//135 150//136 
f 195//136 150//136 144//137 
f 196//137 144//137 123//138 
f 197//138 123//138 122//139 
f 198//139 122//139 133//140 
f 199//140 133//140 132//141 
f 200//141 132//141 143//142 
f 201//142 143//142 169//143 
f 202//143 169//143 168//144 
f 203//144 168//144 174//145 
f 204//145 174//145 161//146 
f 205//146 161//146 160//147 
f 206//147 160//147 167//148 
f 207//148 167//148 173//149 
f 208//149 173//149 166//150 
f 209//150 166//150 165//151 
f 210//151 165//151 142//152 
f 211//152 142//152 141//153 
f 212//153 141//153 131//154 
f 213//154 131//154 130//155 
f 214//155 130//155 129//156 
f 215//156 129//156 128//157 
f 216//157 128//157 149//158 
f 217//158 149//158 148//159 
f 218//159 148//159 147//160 
f 219//160 147//160 140//161 
f 220//161 140//161 139//162 
f 221//162 139//162 146//163 
f 222//163 146//163 145//164 
f 223//164 145//164 164//165 
f 224//165 164//165 159//166 
f 225//166 159//166 158//167 
f 226//167 158//167 157//168 
f 227//168 157//168 156//169 
f 228//169 156//169 127//170 
f 229//170 127//170 126//171 
f 230//171 126//171 138//172 
f 231//172 138//172 137//173 
f 232//173 137//173 136//116 
f 136//116 175//116 232//173 
f 137//173 232//173 231//172 
f 138//172 231//172 230//171 
f 126//171 230//171 229//170 
f 127//170 229//170 228//169 
f 156//169 228//169 227//168 
f 157//168 227//168 226//167 
f 158//167 226//167 225//166 
f 159//166 225//166 224//165 
f 164//165 224//165 223//164 
f 145//164 223//164 222//163 
f 146//163 222//163 221//162 
f 139//162 221//162 220//161 
f 140//161 220//161 219//160 
f 147//160 219//160 218//159 
f 148//159 218//159 217//158 
f 149//158 217//158 216//157 
f 128//157 216//157 215//156 
f 129//156 215//156 214//155 
f 130//155 214//155 213//154 
f 131//154 213//154 212//153 
f 141//153 212//153 211//152 
f 142//152 211//152 210//151 
f 165//151 210//151 209//150 
f 166//150 209//150 208//149 
f 173//149 208//149 207//148 
f 167//148 207//148 206//147 
f 160//147 206//147 205//146 
f 161//146 205//146 204//145 
f 174//145 204//145 203//144 
f 168//144 203//144 202//143 
f 169//143 202//143 201//142 
f 143//142 201//142 200//141 
f 132//141 200//141 199//140 
f 133//140 199//140 198//139 
f 122//139 198//139 197//138 
f 123//138 197//138 196//137 
f 144//137 196//137 195//136 
f 150//136 195//136 194//135 
f 151//135 194//135 193//134 
f 162//134 193//134 192//133 
f 152//133 192//133 191//132 
f 153//132 191//132 190//131 
f 154//131 190//131 189//130 
f 155//130 189//130 188//129 
f 163//129 188//129 187//128 
f 170//128 187//128 186//127 
f 171//127 186//127 185//126 
f 172//126 185//126 184//125 
f 134//125 184//125 183//124 
f 135//124 183//124 182//123 
f 119//123 182//123 181//122 
f 120//122 181//122 180//121 
f 117//121 180//121 179//120 
f 118//120 179//120 178//119 
f 121//119 178//119 177//118 
f 124//118 177//118 176//117 
f 125//117 176//117 175//116 
o mesh3
f 197//174 198//174 70//174 
f 198//174 199//174 68//174 
f 212//174 42//174 44//174 
f 212//174 213//174 40//174 
f 214//174 38//174 40//174 
f 215//174 36//174 38//174 
f 197//174 72//174 74//174 
f 68//174 70//174 198//174 
f 40//174 42//174 212//174 
f 38//174 214//174 215//174 
f 215//174 216//174 34//174 
f 216//174 217//174 32//174 
f 195//174 76//174 78//174 
f 195//174 196//174 74//174 
f 70//174 72//174 197//174 
f 199//174 200//174 66//174 
f 206//174 54//174 56//174 
f 206//174 207//174 52//174 
f 40//174 213//174 214//174 
f 32//174 34//174 216//174 
f 217//174 218//174 30//174 
f 219//174 28//174 30//174 
f 221//174 24//174 26//174 
f 221//174 222//174 22//174 
f 179//174 180//174 106//174 
f 180//174 181//174 104//174 
f 189//174 88//174 90//174 
f 189//174 190//174 86//174 
f 192//174 82//174 84//174 
f 192//174 193//174 80//174 
f 74//174 76//174 195//174 
f 66//174 68//174 199//174 
f 201//174 64//174 66//174 
f 201//174 202//174 62//174 
f 203//174 60//174 62//174 
f 204//174 58//174 60//174 
f 52//174 54//174 206//174 
f 207//174 208//174 50//174 
f 210//174 46//174 48//174 
f 210//174 211//174 44//174 
f 34//174 36//174 215//174 
f 30//174 218//174 219//174 
f 220//174 26//174 28//174 
f 22//174 24//174 221//174 
f 222//174 223//174 20//174 
f 223//174 224//174 18//174 
f 229//174 230//174 6//174 
f 230//174 231//174 4//174 
f 177//174 112//174 114//174 
f 177//174 178//174 110//174 
f 178//174 179//174 108//174 
f 104//174 106//174 180//174 
f 86//174 88//174 189//174 
f 190//174 191//174 84//174 
f 80//174 82//174 192//174 
f 193//174 194//174 78//174 
f 74//174 196//174 197//174 
f 62//174 64//174 201//174 
f 60//174 203//174 204//174 
f 205//174 56//174 58//174 
f 50//174 52//174 207//174 
f 208//174 209//174 48//174 
f 44//174 46//174 210//174 
f 30//174 32//174 217//174 
f 26//174 220//174 221//174 
f 18//174 20//174 223//174 
f 226//174 14//174 16//174 
f 226//174 227//174 12//174 
f 4//174 6//174 230//174 
f 231//174 232//174 1//174 
f 110//174 112//174 177//174 
f 106//174 108//174 179//174 
f 181//174 182//174 102//174 
f 182//174 183//174 100//174 
f 186//174 94//174 96//174 
f 186//174 187//174 92//174 
f 187//174 188//174 90//174 
f 84//174 86//174 190//174 
f 78//174 80//174 193//174 
f 66//174 200//174 201//174 
f 58//174 204//174 205//174 
f 48//174 50//174 208//174 
f 44//174 211//174 212//174 
f 20//174 22//174 222//174 
f 225//174 16//174 18//174 
f 12//174 14//174 226//174 
f 228//174 10//174 12//174 
f 228//174 229//174 8//174 
f 1//174 4//174 231//174 
f 232//174 175//174 2//174 
f 108//174 110//174 178//174 
f 100//174 102//174 182//174 
f 92//174 94//174 186//174 
f 90//174 188//174 189//174 
f 78//174 194//174 195//174 
f 56//174 205//174 206//174 
f 28//174 219//174 220//174 
f 16//174 225//174 226//174 
f 8//174 10//174 228//174 
f 2//174 1//174 232//174 
f 175//174 176//174 114//174 
f 102//174 104//174 181//174 
f 184//174 98//174 100//174 
f 184//174 185//174 96//174 
f 90//174 92//174 187//174 
f 62//174 202//174 203//174 
f 18//174 224//174 225//174 
f 6//174 8//174 229//174 
f 114//174 176//174 177//174 
f 96//174 98//174 184//174 
f 84//174 191//174 192//174 
f 12//174 227//174 228//174 
f 100//174 183//174 184//174 
f 48//174 209//174 210//174 
f 96//174 185//174 186//174 
f 114//174 2//174 175//174 
