# OBJ generated by ONSHAPE BY PTC INC, 1.219 Units = meters
mtllib justtube.mtl
g Part 1
v 0 0 0.0472992 
v 0 -0.127 0.0472992 
v 0.00511394 -0.127 0.0470219 
v 0.00511394 0 0.0470219 
v 0.0101679 -0.127 0.0461934 
v 0.0101679 0 0.0461934 
v 0.0151027 -0.127 0.0448232 
v 0.0151027 0 0.0448232 
v 0.0198604 -0.127 0.0429276 
v 0.0198604 0 0.0429276 
v 0.0243853 -0.127 0.0405287 
v 0.0243853 0 0.0405287 
v 0.0286243 -0.127 0.0376546 
v 0.0286243 0 0.0376546 
v 0.0325276 -0.127 0.034339 
v 0.0325276 0 0.034339 
v 0.0360497 -0.127 0.0306209 
v 0.0360497 0 0.0306209 
v 0.039149 -0.127 0.0265437 
v 0.039149 0 0.0265437 
v 0.0417894 -0.127 0.0221553 
v 0.0417894 0 0.0221553 
v 0.0439399 -0.127 0.0175072 
v 0.0439399 0 0.0175072 
v 0.0455752 -0.127 0.0126539 
v 0.0455752 0 0.0126539 
v 0.0466761 -0.127 0.00765216 
v 0.0466761 0 0.00765216 
v 0.0472298 -0.127 0.00256073 
v 0.0472298 0 0.00256073 
v 0.0472298 -0.127 -0.00256073 
v 0.0472298 0 -0.00256073 
v 0.0466761 -0.127 -0.00765216 
v 0.0466761 0 -0.00765216 
v 0.0455752 -0.127 -0.0126539 
v 0.0455752 0 -0.0126539 
v 0.0439399 -0.127 -0.0175072 
v 0.0439399 0 -0.0175072 
v 0.0417894 -0.127 -0.0221553 
v 0.0417894 0 -0.0221553 
v 0.039149 -0.127 -0.0265437 
v 0.039149 0 -0.0265437 
v 0.0360497 -0.127 -0.0306209 
v 0.0360497 0 -0.0306209 
v 0.0325276 -0.127 -0.034339 
v 0.0325276 0 -0.034339 
v 0.0286243 -0.127 -0.0376546 
v 0.0286243 0 -0.0376546 
v 0.0243853 -0.127 -0.0405287 
v 0.0243853 0 -0.0405287 
v 0.0198604 -0.127 -0.0429276 
v 0.0198604 0 -0.0429276 
v 0.0151027 -0.127 -0.0448232 
v 0.0151027 0 -0.0448232 
v 0.0101679 -0.127 -0.0461934 
v 0.0101679 0 -0.0461934 
v 0.00511394 -0.127 -0.0470219 
v 0.00511394 0 -0.0470219 
v 1.73774e-17 -0.127 -0.0472992 
v 5.79248e-18 0 -0.0472992 
v -0.00511394 -0.127 -0.0470219 
v -0.00511394 0 -0.0470219 
v -0.0101679 -0.127 -0.0461934 
v -0.0101679 0 -0.0461934 
v -0.0151027 -0.127 -0.0448232 
v -0.0151027 0 -0.0448232 
v -0.0198604 -0.127 -0.0429276 
v -0.0198604 0 -0.0429276 
v -0.0243853 -0.127 -0.0405287 
v -0.0243853 0 -0.0405287 
v -0.0286243 -0.127 -0.0376546 
v -0.0286243 0 -0.0376546 
v -0.0325276 -0.127 -0.034339 
v -0.0325276 0 -0.034339 
v -0.0360497 -0.127 -0.0306209 
v -0.0360497 0 -0.0306209 
v -0.039149 -0.127 -0.0265437 
v -0.039149 0 -0.0265437 
v -0.0417894 -0.127 -0.0221553 
v -0.0417894 0 -0.0221553 
v -0.0439399 -0.127 -0.0175072 
v -0.0439399 0 -0.0175072 
v -0.0455752 -0.127 -0.0126539 
v -0.0455752 0 -0.0126539 
v -0.0466761 -0.127 -0.00765216 
v -0.0466761 0 -0.00765216 
v -0.0472298 -0.127 -0.00256073 
v -0.0472298 0 -0.00256073 
v -0.0472298 -0.127 0.00256073 
v -0.0472298 0 0.00256073 
v -0.0466761 -0.127 0.00765216 
v -0.0466761 0 0.00765216 
v -0.0455752 -0.127 0.0126539 
v -0.0455752 0 0.0126539 
v -0.0439399 -0.127 0.0175072 
v -0.0439399 0 0.0175072 
v -0.0417894 -0.127 0.0221553 
v -0.0417894 0 0.0221553 
v -0.039149 -0.127 0.0265437 
v -0.039149 0 0.0265437 
v -0.0360497 -0.127 0.0306209 
v -0.0360497 0 0.0306209 
v -0.0325276 -0.127 0.034339 
v -0.0325276 0 0.034339 
v -0.0286243 -0.127 0.0376546 
v -0.0286243 0 0.0376546 
v -0.0243853 -0.127 0.0405287 
v -0.0243853 0 0.0405287 
v -0.0198604 -0.127 0.0429276 
v -0.0198604 0 0.0429276 
v -0.0151027 -0.127 0.0448232 
v -0.0151027 0 0.0448232 
v -0.0101679 -0.127 0.0461934 
v -0.0101679 0 0.0461934 
v -0.00511394 -0.127 0.0470219 
v -0.00511394 0 0.0470219 
v 0.0147925 -0.127 -0.000802027 
v 0.0146191 -0.127 -0.00239668 
v 0.0147925 -0.127 0.000802027 
v -0.0016017 -0.127 0.0147274 
v 4.33681e-19 -0.127 0.0148142 
v -0.00318462 -0.127 0.0144679 
v 0.0146191 -0.127 0.00239668 
v 0.0130886 -0.127 0.00693912 
v 0.0122616 -0.127 0.00831356 
v -0.00622034 -0.127 0.013445 
v -0.00473021 -0.127 0.0140388 
v -0.00763754 -0.127 0.0126937 
v 0.0142743 -0.127 0.00396323 
v 0.0137621 -0.127 0.00548332 
v -0.0089652 -0.127 0.0117935 
v 0.0112909 -0.127 0.00959054 
v 0.0101877 -0.127 0.0107551 
v 0.0089652 -0.127 0.0117935 
v 0.00763754 -0.127 0.0126937 
v 0.00318462 -0.127 0.0144679 
v 0.00473021 -0.127 0.0140388 
v 0.0016017 -0.127 0.0147274 
v -0.0101877 -0.127 0.0107551 
v 0.00622034 -0.127 0.013445 
v -0.0112909 -0.127 0.00959054 
v -0.0122616 -0.127 0.00831356 
v -0.0130886 -0.127 0.00693912 
v -0.0137621 -0.127 0.00548332 
v -0.0142743 -0.127 0.00396323 
v -0.0146191 -0.127 0.00239668 
v -0.0147925 -0.127 0.000802027 
v -0.0147925 -0.127 -0.000802027 
v -0.0122616 -0.127 -0.00831356 
v -0.0130886 -0.127 -0.00693912 
v -0.0112909 -0.127 -0.00959054 
v 0.0016017 -0.127 -0.0147274 
v 2.2479e-18 -0.127 -0.0148142 
v 0.00318462 -0.127 -0.0144679 
v 0.00473021 -0.127 -0.0140388 
v 0.00622034 -0.127 -0.013445 
v -0.0146191 -0.127 -0.00239668 
v -0.0101877 -0.127 -0.0107551 
v 0.0142743 -0.127 -0.00396323 
v 0.0137621 -0.127 -0.00548332 
v -0.0142743 -0.127 -0.00396323 
v -0.0137621 -0.127 -0.00548332 
v -0.00622034 -0.127 -0.013445 
v -0.00763754 -0.127 -0.0126937 
v -0.00473021 -0.127 -0.0140388 
v 0.00763754 -0.127 -0.0126937 
v 0.0089652 -0.127 -0.0117935 
v 0.0101877 -0.127 -0.0107551 
v 0.0112909 -0.127 -0.00959054 
v 0.0122616 -0.127 -0.00831356 
v 0.0130886 -0.127 -0.00693912 
v -0.0089652 -0.127 -0.0117935 
v -0.00318462 -0.127 -0.0144679 
v -0.0016017 -0.127 -0.0147274 
v -0.0016017 0 0.0147274 
v 4.33681e-19 0 0.0148142 
v -0.00318462 0 0.0144679 
v -0.00473021 0 0.0140388 
v -0.00622034 0 0.013445 
v -0.00763754 0 0.0126937 
v -0.0089652 0 0.0117935 
v -0.0101877 0 0.0107551 
v -0.0112909 0 0.00959054 
v -0.0122616 0 0.00831356 
v -0.0130886 0 0.00693912 
v -0.0137621 0 0.00548332 
v -0.0142743 0 0.00396323 
v -0.0146191 0 0.00239668 
v -0.0147925 0 0.000802027 
v -0.0147925 0 -0.000802027 
v -0.0146191 0 -0.00239668 
v -0.0142743 0 -0.00396323 
v -0.0137621 0 -0.00548332 
v -0.0130886 0 -0.00693912 
v -0.0122616 0 -0.00831356 
v -0.0112909 0 -0.00959054 
v -0.0101877 0 -0.0107551 
v -0.0089652 0 -0.0117935 
v -0.00763754 0 -0.0126937 
v -0.00622034 0 -0.013445 
v -0.00473021 0 -0.0140388 
v -0.00318462 0 -0.0144679 
v -0.0016017 0 -0.0147274 
v 5.87635e-18 0 -0.0148142 
v 0.0016017 0 -0.0147274 
v 0.00318462 0 -0.0144679 
v 0.00473021 0 -0.0140388 
v 0.00622034 0 -0.013445 
v 0.00763754 0 -0.0126937 
v 0.0089652 0 -0.0117935 
v 0.0101877 0 -0.0107551 
v 0.0112909 0 -0.00959054 
v 0.0122616 0 -0.00831356 
v 0.0130886 0 -0.00693912 
v 0.0137621 0 -0.00548332 
v 0.0142743 0 -0.00396323 
v 0.0146191 0 -0.00239668 
v 0.0147925 0 -0.000802027 
v 0.0147925 0 0.000802027 
v 0.0146191 0 0.00239668 
v 0.0142743 0 0.00396323 
v 0.0137621 0 0.00548332 
v 0.0130886 0 0.00693912 
v 0.0122616 0 0.00831356 
v 0.0112909 0 0.00959054 
v 0.0101877 0 0.0107551 
v 0.0089652 0 0.0117935 
v 0.00763754 0 0.0126937 
v 0.00622034 0 0.013445 
v 0.00473021 0 0.0140388 
v 0.00318462 0 0.0144679 
v 0.0016017 0 0.0147274 
vn 0 0 1 
vn 0.108119 0 0.994138 
vn 0.21497 0 0.976621 
vn 0.319302 0 0.947653 
vn 0.419889 0 0.907575 
vn 0.515554 0 0.856857 
vn 0.605174 0 0.796093 
vn 0.687699 0 0.725995 
vn 0.762162 0 0.647386 
vn 0.827689 0 0.561187 
vn 0.883512 0 0.468408 
vn 0.928977 0 0.370138 
vn 0.96355 0 0.267528 
vn 0.986827 0 0.161782 
vn 0.998533 0 0.0541389 
vn 0.998533 0 -0.0541389 
vn 0.986827 0 -0.161782 
vn 0.96355 0 -0.267528 
vn 0.928977 0 -0.370138 
vn 0.883512 0 -0.468408 
vn 0.827689 0 -0.561187 
vn 0.762162 0 -0.647386 
vn 0.687699 0 -0.725995 
vn 0.605174 0 -0.796093 
vn 0.515554 0 -0.856857 
vn 0.419889 0 -0.907575 
vn 0.319302 0 -0.947653 
vn 0.21497 0 -0.976621 
vn 0.108119 0 -0.994138 
vn 1.22465e-16 0 -1 
vn -0.108119 0 -0.994138 
vn -0.21497 0 -0.976621 
vn -0.319302 0 -0.947653 
vn -0.419889 0 -0.907575 
vn -0.515554 0 -0.856857 
vn -0.605174 0 -0.796093 
vn -0.687699 0 -0.725995 
vn -0.762162 0 -0.647386 
vn -0.827689 0 -0.561187 
vn -0.883512 0 -0.468408 
vn -0.928977 0 -0.370138 
vn -0.96355 0 -0.267528 
vn -0.986827 0 -0.161782 
vn -0.998533 0 -0.0541389 
vn -0.998533 0 0.0541389 
vn -0.986827 0 0.161782 
vn -0.96355 0 0.267528 
vn -0.928977 0 0.370138 
vn -0.883512 0 0.468408 
vn -0.827689 0 0.561187 
vn -0.762162 0 0.647386 
vn -0.687699 0 0.725995 
vn -0.605174 0 0.796093 
vn -0.515554 0 0.856857 
vn -0.419889 0 0.907575 
vn -0.319302 0 0.947653 
vn -0.21497 0 0.976621 
vn -0.108119 0 0.994138 
vn 0 -1 0 
vn 0.108119 0 -0.994138 
vn 2.44929e-16 0 -1 
vn 0.21497 0 -0.976621 
vn 0.108119 0 -0.994138 
vn 0.319302 0 -0.947653 
vn 0.21497 0 -0.976621 
vn 0.419889 0 -0.907575 
vn 0.319302 0 -0.947653 
vn 0.515554 0 -0.856857 
vn 0.419889 0 -0.907575 
vn 0.605174 0 -0.796093 
vn 0.515554 0 -0.856857 
vn 0.687699 0 -0.725995 
vn 0.605174 0 -0.796093 
vn 0.762162 0 -0.647386 
vn 0.687699 0 -0.725995 
vn 0.827689 0 -0.561187 
vn 0.762162 0 -0.647386 
vn 0.883512 0 -0.468408 
vn 0.827689 0 -0.561187 
vn 0.928977 0 -0.370138 
vn 0.883512 0 -0.468408 
vn 0.96355 0 -0.267528 
vn 0.928977 0 -0.370138 
vn 0.986827 0 -0.161782 
vn 0.96355 0 -0.267528 
vn 0.998533 0 -0.0541389 
vn 0.986827 0 -0.161782 
vn 0.998533 0 0.0541389 
vn 0.998533 0 -0.0541389 
vn 0.986827 0 0.161782 
vn 0.998533 0 0.0541389 
vn 0.96355 0 0.267528 
vn 0.986827 0 0.161782 
vn 0.928977 0 0.370138 
vn 0.96355 0 0.267528 
vn 0.883512 0 0.468408 
vn 0.928977 0 0.370138 
vn 0.827689 0 0.561187 
vn 0.883512 0 0.468408 
vn 0.762162 0 0.647386 
vn 0.827689 0 0.561187 
vn 0.687699 0 0.725995 
vn 0.762162 0 0.647386 
vn 0.605174 0 0.796093 
vn 0.687699 0 0.725995 
vn 0.515554 0 0.856857 
vn 0.605174 0 0.796093 
vn 0.419889 0 0.907575 
vn 0.515554 0 0.856857 
vn 0.319302 0 0.947653 
vn 0.419889 0 0.907575 
vn 0.21497 0 0.976621 
vn 0.319302 0 0.947653 
vn 0.108119 0 0.994138 
vn 0.21497 0 0.976621 
vn -1.22465e-16 0 1 
vn 0.108119 0 0.994138 
vn -0.108119 0 0.994138 
vn -1.22465e-16 0 1 
vn -0.21497 0 0.976621 
vn -0.108119 0 0.994138 
vn -0.319302 0 0.947653 
vn -0.21497 0 0.976621 
vn -0.419889 0 0.907575 
vn -0.319302 0 0.947653 
vn -0.515554 0 0.856857 
vn -0.419889 0 0.907575 
vn -0.605174 0 0.796093 
vn -0.515554 0 0.856857 
vn -0.687699 0 0.725995 
vn -0.605174 0 0.796093 
vn -0.762162 0 0.647386 
vn -0.687699 0 0.725995 
vn -0.827689 0 0.561187 
vn -0.762162 0 0.647386 
vn -0.883512 0 0.468408 
vn -0.827689 0 0.561187 
vn -0.928977 0 0.370138 
vn -0.883512 0 0.468408 
vn -0.96355 0 0.267528 
vn -0.928977 0 0.370138 
vn -0.986827 0 0.161782 
vn -0.96355 0 0.267528 
vn -0.998533 0 0.0541389 
vn -0.986827 0 0.161782 
vn -0.998533 0 -0.0541389 
vn -0.998533 0 0.0541389 
vn -0.986827 0 -0.161782 
vn -0.998533 0 -0.0541389 
vn -0.96355 0 -0.267528 
vn -0.986827 0 -0.161782 
vn -0.928977 0 -0.370138 
vn -0.96355 0 -0.267528 
vn -0.883512 0 -0.468408 
vn -0.928977 0 -0.370138 
vn -0.827689 0 -0.561187 
vn -0.883512 0 -0.468408 
vn -0.762162 0 -0.647386 
vn -0.827689 0 -0.561187 
vn -0.687699 0 -0.725995 
vn -0.762162 0 -0.647386 
vn -0.605174 0 -0.796093 
vn -0.687699 0 -0.725995 
vn -0.515554 0 -0.856857 
vn -0.605174 0 -0.796093 
vn -0.419889 0 -0.907575 
vn -0.515554 0 -0.856857 
vn -0.319302 0 -0.947653 
vn -0.419889 0 -0.907575 
vn -0.21497 0 -0.976621 
vn -0.319302 0 -0.947653 
vn -0.108119 0 -0.994138 
vn -0.21497 0 -0.976621 
vn 0 1 0 
usemtl 0.615686_0.811765_0.929412_0.000000_0.000000
o mesh0
f 1//1 2//1 3//2 
f 4//2 3//2 5//3 
f 6//3 5//3 7//4 
f 8//4 7//4 9//5 
f 10//5 9//5 11//6 
f 12//6 11//6 13//7 
f 14//7 13//7 15//8 
f 16//8 15//8 17//9 
f 18//9 17//9 19//10 
f 20//10 19//10 21//11 
f 22//11 21//11 23//12 
f 24//12 23//12 25//13 
f 26//13 25//13 27//14 
f 28//14 27//14 29//15 
f 30//15 29//15 31//16 
f 32//16 31//16 33//17 
f 34//17 33//17 35//18 
f 36//18 35//18 37//19 
f 38//19 37//19 39//20 
f 40//20 39//20 41//21 
f 42//21 41//21 43//22 
f 44//22 43//22 45//23 
f 46//23 45//23 47//24 
f 48//24 47//24 49//25 
f 50//25 49//25 51//26 
f 52//26 51//26 53//27 
f 54//27 53//27 55//28 
f 56//28 55//28 57//29 
f 58//29 57//29 59//30 
f 60//30 59//30 61//31 
f 62//31 61//31 63//32 
f 64//32 63//32 65//33 
f 66//33 65//33 67//34 
f 68//34 67//34 69//35 
f 70//35 69//35 71//36 
f 72//36 71//36 73//37 
f 74//37 73//37 75//38 
f 76//38 75//38 77//39 
f 78//39 77//39 79//40 
f 80//40 79//40 81//41 
f 82//41 81//41 83//42 
f 84//42 83//42 85//43 
f 86//43 85//43 87//44 
f 88//44 87//44 89//45 
f 90//45 89//45 91//46 
f 92//46 91//46 93//47 
f 94//47 93//47 95//48 
f 96//48 95//48 97//49 
f 98//49 97//49 99//50 
f 100//50 99//50 101//51 
f 102//51 101//51 103//52 
f 104//52 103//52 105//53 
f 106//53 105//53 107//54 
f 108//54 107//54 109//55 
f 110//55 109//55 111//56 
f 112//56 111//56 113//57 
f 114//57 113//57 115//58 
f 116//58 115//58 2//1 
f 2//1 1//1 116//58 
f 115//58 116//58 114//57 
f 113//57 114//57 112//56 
f 111//56 112//56 110//55 
f 109//55 110//55 108//54 
f 107//54 108//54 106//53 
f 105//53 106//53 104//52 
f 103//52 104//52 102//51 
f 101//51 102//51 100//50 
f 99//50 100//50 98//49 
f 97//49 98//49 96//48 
f 95//48 96//48 94//47 
f 93//47 94//47 92//46 
f 91//46 92//46 90//45 
f 89//45 90//45 88//44 
f 87//44 88//44 86//43 
f 85//43 86//43 84//42 
f 83//42 84//42 82//41 
f 81//41 82//41 80//40 
f 79//40 80//40 78//39 
f 77//39 78//39 76//38 
f 75//38 76//38 74//37 
f 73//37 74//37 72//36 
f 71//36 72//36 70//35 
f 69//35 70//35 68//34 
f 67//34 68//34 66//33 
f 65//33 66//33 64//32 
f 63//32 64//32 62//31 
f 61//31 62//31 60//30 
f 59//30 60//30 58//29 
f 57//29 58//29 56//28 
f 55//28 56//28 54//27 
f 53//27 54//27 52//26 
f 51//26 52//26 50//25 
f 49//25 50//25 48//24 
f 47//24 48//24 46//23 
f 45//23 46//23 44//22 
f 43//22 44//22 42//21 
f 41//21 42//21 40//20 
f 39//20 40//20 38//19 
f 37//19 38//19 36//18 
f 35//18 36//18 34//17 
f 33//17 34//17 32//16 
f 31//16 32//16 30//15 
f 29//15 30//15 28//14 
f 27//14 28//14 26//13 
f 25//13 26//13 24//12 
f 23//12 24//12 22//11 
f 21//11 22//11 20//10 
f 19//10 20//10 18//9 
f 17//9 18//9 16//8 
f 15//8 16//8 14//7 
f 13//7 14//7 12//6 
f 11//6 12//6 10//5 
f 9//5 10//5 8//4 
f 7//4 8//4 6//3 
f 5//3 6//3 4//2 
f 3//2 4//2 1//1 
o mesh1
f 31//59 117//59 118//59 
f 31//59 29//59 119//59 
f 115//59 120//59 121//59 
f 115//59 113//59 122//59 
f 119//59 117//59 31//59 
f 29//59 27//59 123//59 
f 23//59 21//59 124//59 
f 21//59 19//59 125//59 
f 3//59 2//59 121//59 
f 122//59 120//59 115//59 
f 109//59 126//59 127//59 
f 109//59 107//59 128//59 
f 123//59 119//59 29//59 
f 27//59 25//59 129//59 
f 23//59 130//59 129//59 
f 125//59 124//59 21//59 
f 121//59 2//59 115//59 
f 113//59 111//59 127//59 
f 128//59 126//59 109//59 
f 107//59 105//59 131//59 
f 129//59 123//59 27//59 
f 124//59 130//59 23//59 
f 19//59 17//59 132//59 
f 17//59 15//59 133//59 
f 127//59 122//59 113//59 
f 131//59 128//59 107//59 
f 129//59 25//59 23//59 
f 133//59 132//59 17//59 
f 13//59 134//59 133//59 
f 13//59 11//59 135//59 
f 5//59 136//59 137//59 
f 5//59 3//59 138//59 
f 127//59 111//59 109//59 
f 103//59 139//59 131//59 
f 132//59 125//59 19//59 
f 135//59 134//59 13//59 
f 11//59 9//59 140//59 
f 9//59 7//59 137//59 
f 138//59 136//59 5//59 
f 131//59 105//59 103//59 
f 101//59 141//59 139//59 
f 101//59 99//59 142//59 
f 97//59 143//59 142//59 
f 97//59 95//59 144//59 
f 93//59 145//59 144//59 
f 91//59 146//59 145//59 
f 89//59 147//59 146//59 
f 87//59 148//59 147//59 
f 77//59 149//59 150//59 
f 75//59 151//59 149//59 
f 57//59 152//59 153//59 
f 57//59 55//59 154//59 
f 53//59 155//59 154//59 
f 53//59 51//59 156//59 
f 133//59 15//59 13//59 
f 137//59 140//59 9//59 
f 121//59 138//59 3//59 
f 142//59 141//59 101//59 
f 144//59 143//59 97//59 
f 145//59 93//59 91//59 
f 147//59 89//59 87//59 
f 87//59 85//59 157//59 
f 149//59 77//59 75//59 
f 75//59 73//59 158//59 
f 154//59 152//59 57//59 
f 156//59 155//59 53//59 
f 35//59 159//59 160//59 
f 35//59 33//59 118//59 
f 140//59 135//59 11//59 
f 139//59 103//59 101//59 
f 144//59 95//59 93//59 
f 157//59 148//59 87//59 
f 83//59 161//59 157//59 
f 83//59 81//59 162//59 
f 79//59 150//59 162//59 
f 158//59 151//59 75//59 
f 67//59 163//59 164//59 
f 67//59 65//59 165//59 
f 154//59 55//59 53//59 
f 51//59 49//59 166//59 
f 49//59 47//59 167//59 
f 47//59 45//59 168//59 
f 45//59 43//59 169//59 
f 41//59 170//59 169//59 
f 39//59 171//59 170//59 
f 39//59 37//59 160//59 
f 118//59 159//59 35//59 
f 137//59 7//59 5//59 
f 146//59 91//59 89//59 
f 162//59 161//59 83//59 
f 150//59 79//59 77//59 
f 71//59 172//59 158//59 
f 69//59 164//59 172//59 
f 165//59 163//59 67//59 
f 166//59 156//59 51//59 
f 168//59 167//59 47//59 
f 169//59 43//59 41//59 
f 160//59 171//59 39//59 
f 118//59 33//59 31//59 
f 157//59 85//59 83//59 
f 158//59 73//59 71//59 
f 164//59 69//59 67//59 
f 167//59 166//59 49//59 
f 170//59 41//59 39//59 
f 142//59 99//59 97//59 
f 172//59 71//59 69//59 
f 63//59 173//59 165//59 
f 63//59 61//59 174//59 
f 169//59 168//59 45//59 
f 162//59 81//59 79//59 
f 174//59 173//59 63//59 
f 61//59 59//59 153//59 
f 160//59 37//59 35//59 
f 153//59 174//59 61//59 
f 165//59 65//59 63//59 
f 153//59 59//59 57//59 
o mesh2
f 175//60 176//61 121//61 
f 177//62 175//60 120//63 
f 178//64 177//62 122//65 
f 179//66 178//64 127//67 
f 180//68 179//66 126//69 
f 181//70 180//68 128//71 
f 182//72 181//70 131//73 
f 183//74 182//72 139//75 
f 184//76 183//74 141//77 
f 185//78 184//76 142//79 
f 186//80 185//78 143//81 
f 187//82 186//80 144//83 
f 188//84 187//82 145//85 
f 189//86 188//84 146//87 
f 190//88 189//86 147//89 
f 191//90 190//88 148//91 
f 192//92 191//90 157//93 
f 193//94 192//92 161//95 
f 194//96 193//94 162//97 
f 195//98 194//96 150//99 
f 196//100 195//98 149//101 
f 197//102 196//100 151//103 
f 198//104 197//102 158//105 
f 199//106 198//104 172//107 
f 200//108 199//106 164//109 
f 201//110 200//108 163//111 
f 202//112 201//110 165//113 
f 203//114 202//112 173//115 
f 204//116 203//114 174//117 
f 205//118 204//116 153//119 
f 206//120 205//118 152//121 
f 207//122 206//120 154//123 
f 208//124 207//122 155//125 
f 209//126 208//124 156//127 
f 210//128 209//126 166//129 
f 211//130 210//128 167//131 
f 212//132 211//130 168//133 
f 213//134 212//132 169//135 
f 214//136 213//134 170//137 
f 215//138 214//136 171//139 
f 216//140 215//138 160//141 
f 217//142 216//140 159//143 
f 218//144 217//142 118//145 
f 219//146 218//144 117//147 
f 220//148 219//146 119//149 
f 221//150 220//148 123//151 
f 222//152 221//150 129//153 
f 223//154 222//152 130//155 
f 224//156 223//154 124//157 
f 225//158 224//156 125//159 
f 226//160 225//158 132//161 
f 227//162 226//160 133//163 
f 228//164 227//162 134//165 
f 229//166 228//164 135//167 
f 230//168 229//166 140//169 
f 231//170 230//168 137//171 
f 232//172 231//170 136//173 
f 176//61 232//172 138//172 
f 138//172 121//61 176//61 
f 136//173 138//172 232//172 
f 137//171 136//173 231//170 
f 140//169 137//171 230//168 
f 135//167 140//169 229//166 
f 134//165 135//167 228//164 
f 133//163 134//165 227//162 
f 132//161 133//163 226//160 
f 125//159 132//161 225//158 
f 124//157 125//159 224//156 
f 130//155 124//157 223//154 
f 129//153 130//155 222//152 
f 123//151 129//153 221//150 
f 119//149 123//151 220//148 
f 117//147 119//149 219//146 
f 118//145 117//147 218//144 
f 159//143 118//145 217//142 
f 160//141 159//143 216//140 
f 171//139 160//141 215//138 
f 170//137 171//139 214//136 
f 169//135 170//137 213//134 
f 168//133 169//135 212//132 
f 167//131 168//133 211//130 
f 166//129 167//131 210//128 
f 156//127 166//129 209//126 
f 155//125 156//127 208//124 
f 154//123 155//125 207//122 
f 152//121 154//123 206//120 
f 153//119 152//121 205//118 
f 174//117 153//119 204//116 
f 173//115 174//117 203//114 
f 165//113 173//115 202//112 
f 163//111 165//113 201//110 
f 164//109 163//111 200//108 
f 172//107 164//109 199//106 
f 158//105 172//107 198//104 
f 151//103 158//105 197//102 
f 149//101 151//103 196//100 
f 150//99 149//101 195//98 
f 162//97 150//99 194//96 
f 161//95 162//97 193//94 
f 157//93 161//95 192//92 
f 148//91 157//93 191//90 
f 147//89 148//91 190//88 
f 146//87 147//89 189//86 
f 145//85 146//87 188//84 
f 144//83 145//85 187//82 
f 143//81 144//83 186//80 
f 142//79 143//81 185//78 
f 141//77 142//79 184//76 
f 139//75 141//77 183//74 
f 131//73 139//75 182//72 
f 128//71 131//73 181//70 
f 126//69 128//71 180//68 
f 127//67 126//69 179//66 
f 122//65 127//67 178//64 
f 120//63 122//65 177//62 
f 121//61 120//63 175//60 
o mesh3
f 48//174 210//174 211//174 
f 48//174 50//174 209//174 
f 76//174 78//174 195//174 
f 78//174 80//174 194//174 
f 88//174 190//174 191//174 
f 88//174 90//174 189//174 
f 106//174 108//174 180//174 
f 110//174 179//174 180//174 
f 10//174 229//174 230//174 
f 12//174 228//174 229//174 
f 14//174 227//174 228//174 
f 14//174 16//174 226//174 
f 209//174 210//174 48//174 
f 50//174 52//174 208//174 
f 54//174 207//174 208//174 
f 54//174 56//174 206//174 
f 74//174 76//174 196//174 
f 194//174 195//174 78//174 
f 84//174 192//174 193//174 
f 84//174 86//174 191//174 
f 189//174 190//174 88//174 
f 90//174 92//174 188//174 
f 180//174 108//174 110//174 
f 110//174 112//174 178//174 
f 229//174 10//174 12//174 
f 226//174 227//174 14//174 
f 18//174 225//174 226//174 
f 20//174 224//174 225//174 
f 22//174 223//174 224//174 
f 24//174 222//174 223//174 
f 30//174 219//174 220//174 
f 32//174 218//174 219//174 
f 40//174 214//174 215//174 
f 40//174 42//174 213//174 
f 208//174 209//174 50//174 
f 206//174 207//174 54//174 
f 58//174 205//174 206//174 
f 58//174 60//174 204//174 
f 68//174 200//174 201//174 
f 68//174 70//174 199//174 
f 72//174 74//174 197//174 
f 195//174 196//174 76//174 
f 191//174 192//174 84//174 
f 188//174 189//174 90//174 
f 92//174 94//174 187//174 
f 94//174 96//174 186//174 
f 104//174 106//174 181//174 
f 178//174 179//174 110//174 
f 228//174 12//174 14//174 
f 225//174 18//174 20//174 
f 223//174 22//174 24//174 
f 24//174 26//174 221//174 
f 219//174 30//174 32//174 
f 32//174 34//174 217//174 
f 213//174 214//174 40//174 
f 42//174 44//174 212//174 
f 208//174 52//174 54//174 
f 204//174 205//174 58//174 
f 199//174 200//174 68//174 
f 70//174 72//174 198//174 
f 196//174 197//174 74//174 
f 80//174 82//174 193//174 
f 191//174 86//174 88//174 
f 186//174 187//174 94//174 
f 98//174 185//174 186//174 
f 98//174 100//174 184//174 
f 180//174 181//174 106//174 
f 114//174 177//174 178//174 
f 116//174 175//174 177//174 
f 116//174 1//174 176//174 
f 6//174 231//174 232//174 
f 6//174 8//174 230//174 
f 226//174 16//174 18//174 
f 221//174 222//174 24//174 
f 28//174 220//174 221//174 
f 217//174 218//174 32//174 
f 212//174 213//174 42//174 
f 46//174 211//174 212//174 
f 206//174 56//174 58//174 
f 62//174 203//174 204//174 
f 198//174 199//174 70//174 
f 193//174 194//174 80//174 
f 187//174 188//174 92//174 
f 184//174 185//174 98//174 
f 102//174 183//174 184//174 
f 102//174 104//174 182//174 
f 178//174 112//174 114//174 
f 176//174 175//174 116//174 
f 4//174 232//174 176//174 
f 230//174 231//174 6//174 
f 224//174 20//174 22//174 
f 220//174 28//174 30//174 
f 212//174 44//174 46//174 
f 204//174 60//174 62//174 
f 64//174 202//174 203//174 
f 64//174 66//174 201//174 
f 197//174 198//174 72//174 
f 186//174 96//174 98//174 
f 182//174 183//174 102//174 
f 177//174 114//174 116//174 
f 232//174 4//174 6//174 
f 221//174 26//174 28//174 
f 36//174 216//174 217//174 
f 36//174 38//174 215//174 
f 211//174 46//174 48//174 
f 201//174 202//174 64//174 
f 193//174 82//174 84//174 
f 181//174 182//174 104//174 
f 230//174 8//174 10//174 
f 215//174 216//174 36//174 
f 203//174 62//174 64//174 
f 184//174 100//174 102//174 
f 217//174 34//174 36//174 
f 201//174 66//174 68//174 
f 215//174 38//174 40//174 
f 176//174 1//174 4//174 
