# OBJ generated by ONSHAPE BY PTC INC, 1.218 Units = meters
mtllib tubeforreg.mtl
g Curve 1
usemtl 0.000000_0.000000_0.000000_0.000000_0.000000
o mesh0
v -0.0148142 -0.127 -6.93889e-18 
v -0.0146319 -0.126471 0.00231744 
v -0.0140892 -0.125942 0.00457786 
v -0.0131996 -0.125412 0.00672554 
v -0.011985 -0.124883 0.00870758 
v -0.0104753 -0.124354 0.0104753 
v -0.00870758 -0.123825 0.011985 
v -0.00672554 -0.123296 0.0131996 
v -0.00457786 -0.122767 0.0140892 
v -0.00231744 -0.122237 0.0146319 
v -4.7343e-19 -0.121708 0.0148142 
v 0.00231744 -0.121179 0.0146319 
v 0.00457786 -0.12065 0.0140892 
v 0.00672554 -0.120121 0.0131996 
v 0.00870758 -0.119592 0.011985 
v 0.0104753 -0.119063 0.0104753 
v 0.011985 -0.118533 0.00870758 
v 0.0131996 -0.118004 0.00672554 
v 0.0140892 -0.117475 0.00457786 
v 0.0146319 -0.116946 0.00231744 
v 0.0148142 -0.116417 -5.12467e-18 
v 0.0146319 -0.115888 -0.00231744 
v 0.0140892 -0.115358 -0.00457786 
v 0.0131996 -0.114829 -0.00672554 
v 0.011985 -0.1143 -0.00870758 
v 0.0104753 -0.113771 -0.0104753 
v 0.00870758 -0.113242 -0.011985 
v 0.00672554 -0.112713 -0.0131996 
v 0.00457786 -0.112183 -0.0140892 
v 0.00231744 -0.111654 -0.0146319 
v 3.15501e-18 -0.111125 -0.0148142 
v -0.00231744 -0.110596 -0.0146319 
v -0.00457786 -0.110067 -0.0140892 
v -0.00672554 -0.109537 -0.0131996 
v -0.00870758 -0.109008 -0.011985 
v -0.0104753 -0.108479 -0.0104753 
v -0.011985 -0.10795 -0.00870758 
v -0.0131996 -0.107421 -0.00672554 
v -0.0140892 -0.106892 -0.00457786 
v -0.0146319 -0.106362 -0.00231744 
v -0.0148142 -0.105833 -1.05673e-17 
v -0.0146319 -0.105304 0.00231744 
v -0.0140892 -0.104775 0.00457786 
v -0.0131996 -0.104246 0.00672554 
v -0.011985 -0.103717 0.00870758 
v -0.0104753 -0.103188 0.0104753 
v -0.00870758 -0.102658 0.011985 
v -0.00672554 -0.102129 0.0131996 
v -0.00457786 -0.1016 0.0140892 
v -0.00231744 -0.101071 0.0146319 
v -4.10187e-18 -0.100542 0.0148142 
v 0.00231744 -0.100013 0.0146319 
v 0.00457786 -0.0994833 0.0140892 
v 0.00672554 -0.0989542 0.0131996 
v 0.00870758 -0.098425 0.011985 
v 0.0104753 -0.0978958 0.0104753 
v 0.011985 -0.0973667 0.00870758 
v 0.0131996 -0.0968375 0.00672554 
v 0.0140892 -0.0963083 0.00457786 
v 0.0146319 -0.0957792 0.00231744 
v 0.0148142 -0.09525 -1.49623e-18 
v 0.0146319 -0.0947208 -0.00231744 
v 0.0140892 -0.0941917 -0.00457786 
v 0.0131996 -0.0936625 -0.00672554 
v 0.011985 -0.0931333 -0.00870758 
v 0.0104753 -0.0926042 -0.0104753 
v 0.00870758 -0.092075 -0.011985 
v 0.00672554 -0.0915458 -0.0131996 
v 0.00457786 -0.0910167 -0.0140892 
v 0.00231744 -0.0904875 -0.0146319 
v 6.78346e-18 -0.0899583 -0.0148142 
v -0.00231744 -0.0894292 -0.0146319 
v -0.00457786 -0.0889 -0.0140892 
v -0.00672554 -0.0883708 -0.0131996 
v -0.00870758 -0.0878417 -0.011985 
v -0.0104753 -0.0873125 -0.0104753 
v -0.011985 -0.0867833 -0.00870758 
v -0.0131996 -0.0862542 -0.00672554 
v -0.0140892 -0.085725 -0.00457786 
v -0.0146319 -0.0851958 -0.00231744 
v -0.0148142 -0.0846667 -1.41958e-17 
v -0.0146319 -0.0841375 0.00231744 
v -0.0140892 -0.0836083 0.00457786 
v -0.0131996 -0.0830792 0.00672554 
v -0.011985 -0.08255 0.00870758 
v -0.0104753 -0.0820208 0.0104753 
v -0.00870758 -0.0814917 0.011985 
v -0.00672554 -0.0809625 0.0131996 
v -0.00457786 -0.0804333 0.0140892 
v -0.00231744 -0.0799042 0.0146319 
v -7.73032e-18 -0.079375 0.0148142 
v 0.00231744 -0.0788458 0.0146319 
v 0.00457786 -0.0783167 0.0140892 
v 0.00672554 -0.0777875 0.0131996 
v 0.00870758 -0.0772583 0.011985 
v 0.0104753 -0.0767292 0.0104753 
v 0.011985 -0.0762 0.00870758 
v 0.0131996 -0.0756708 0.00672554 
v 0.0140892 -0.0751417 0.00457786 
v 0.0146319 -0.0746125 0.00231744 
v 0.0148142 -0.0740833 2.13221e-18 
v 0.0146319 -0.0735542 -0.00231744 
v 0.0140892 -0.073025 -0.00457786 
v 0.0131996 -0.0724958 -0.00672554 
v 0.011985 -0.0719667 -0.00870758 
v 0.0104753 -0.0714375 -0.0104753 
v 0.00870758 -0.0709083 -0.011985 
v 0.00672554 -0.0703792 -0.0131996 
v 0.00457786 -0.06985 -0.0140892 
v 0.00231744 -0.0693208 -0.0146319 
v 3.67273e-17 -0.0687917 -0.0148142 
v -0.00231744 -0.0682625 -0.0146319 
v -0.00457786 -0.0677333 -0.0140892 
v -0.00672554 -0.0672042 -0.0131996 
v -0.00870758 -0.066675 -0.011985 
v -0.0104753 -0.0661458 -0.0104753 
v -0.011985 -0.0656167 -0.00870758 
v -0.0131996 -0.0650875 -0.00672554 
v -0.0140892 -0.0645583 -0.00457786 
v -0.0146319 -0.0640292 -0.00231744 
v -0.0148142 -0.0635 -1.78242e-17 
v -0.0146319 -0.0629708 0.00231744 
v -0.0140892 -0.0624417 0.00457786 
v -0.0131996 -0.0619125 0.00672554 
v -0.011985 -0.0613833 0.00870758 
v -0.0104753 -0.0608542 0.0104753 
v -0.00870758 -0.060325 0.011985 
v -0.00672554 -0.0597958 0.0131996 
v -0.00457786 -0.0592667 0.0140892 
v -0.00231744 -0.0587375 0.0146319 
v -3.76741e-17 -0.0582083 0.0148142 
v 0.00231744 -0.0576792 0.0146319 
v 0.00457786 -0.05715 0.0140892 
v 0.00672554 -0.0566208 0.0131996 
v 0.00870758 -0.0560917 0.011985 
v 0.0104753 -0.0555625 0.0104753 
v 0.011985 -0.0550333 0.00870758 
v 0.0131996 -0.0545042 0.00672554 
v 0.0140892 -0.053975 0.00457786 
v 0.0146319 -0.0534458 0.00231744 
v 0.0148142 -0.0529167 5.76066e-18 
v 0.0146319 -0.0523875 -0.00231744 
v 0.0140892 -0.0518583 -0.00457786 
v 0.0131996 -0.0513292 -0.00672554 
v 0.011985 -0.0508 -0.00870758 
v 0.0104753 -0.0502708 -0.0104753 
v 0.00870758 -0.0497417 -0.011985 
v 0.00672554 -0.0492125 -0.0131996 
v 0.00457786 -0.0486833 -0.0140892 
v 0.00231744 -0.0481542 -0.0146319 
v 4.03557e-17 -0.047625 -0.0148142 
v -0.00231744 -0.0470958 -0.0146319 
v -0.00457786 -0.0465667 -0.0140892 
v -0.00672554 -0.0460375 -0.0131996 
v -0.00870758 -0.0455083 -0.011985 
v -0.0104753 -0.0449792 -0.0104753 
v -0.011985 -0.04445 -0.00870758 
v -0.0131996 -0.0439208 -0.00672554 
v -0.0140892 -0.0433917 -0.00457786 
v -0.0146319 -0.0428625 -0.00231744 
v -0.0148142 -0.0423333 -2.14527e-17 
v -0.0146319 -0.0418042 0.00231744 
v -0.0140892 -0.041275 0.00457786 
v -0.0131996 -0.0407458 0.00672554 
v -0.011985 -0.0402167 0.00870758 
v -0.0104753 -0.0396875 0.0104753 
v -0.00870758 -0.0391583 0.011985 
v -0.00672554 -0.0386292 0.0131996 
v -0.00457786 -0.0381 0.0140892 
v -0.00231744 -0.0375708 0.0146319 
v -4.13026e-17 -0.0370417 0.0148142 
v 0.00231744 -0.0365125 0.0146319 
v 0.00457786 -0.0359833 0.0140892 
v 0.00672554 -0.0354542 0.0131996 
v 0.00870758 -0.034925 0.011985 
v 0.0104753 -0.0343958 0.0104753 
v 0.011985 -0.0338667 0.00870758 
v 0.0131996 -0.0333375 0.00672554 
v 0.0140892 -0.0328083 0.00457786 
v 0.0146319 -0.0322792 0.00231744 
v 0.0148142 -0.03175 9.3891e-18 
v 0.0146319 -0.0312208 -0.00231744 
v 0.0140892 -0.0306917 -0.00457786 
v 0.0131996 -0.0301625 -0.00672554 
v 0.011985 -0.0296333 -0.00870758 
v 0.0104753 -0.0291042 -0.0104753 
v 0.00870758 -0.028575 -0.011985 
v 0.00672554 -0.0280458 -0.0131996 
v 0.00457786 -0.0275167 -0.0140892 
v 0.00231744 -0.0269875 -0.0146319 
v 4.39842e-17 -0.0264583 -0.0148142 
v -0.00231744 -0.0259292 -0.0146319 
v -0.00457786 -0.0254 -0.0140892 
v -0.00672554 -0.0248708 -0.0131996 
v -0.00870758 -0.0243417 -0.011985 
v -0.0104753 -0.0238125 -0.0104753 
v -0.011985 -0.0232833 -0.00870758 
v -0.0131996 -0.0227542 -0.00672554 
v -0.0140892 -0.022225 -0.00457786 
v -0.0146319 -0.0216958 -0.00231744 
v -0.0148142 -0.0211667 -2.50811e-17 
v -0.0146319 -0.0206375 0.00231744 
v -0.0140892 -0.0201083 0.00457786 
v -0.0131996 -0.0195792 0.00672554 
v -0.011985 -0.01905 0.00870758 
v -0.0104753 -0.0185208 0.0104753 
v -0.00870758 -0.0179917 0.011985 
v -0.00672554 -0.0174625 0.0131996 
v -0.00457786 -0.0169333 0.0140892 
v -0.00231744 -0.0164042 0.0146319 
v 7.69974e-18 -0.015875 0.0148142 
v 0.00231744 -0.0153458 0.0146319 
v 0.00457786 -0.0148167 0.0140892 
v 0.00672554 -0.0142875 0.0131996 
v 0.00870758 -0.0137583 0.011985 
v 0.0104753 -0.0132292 0.0104753 
v 0.011985 -0.0127 0.00870758 
v 0.0131996 -0.0121708 0.00672554 
v 0.0140892 -0.0116417 0.00457786 
v 0.0146319 -0.0111125 0.00231744 
v 0.0148142 -0.0105833 6.56483e-17 
v 0.0146319 -0.0100542 -0.00231744 
v 0.0140892 -0.00952499 -0.00457786 
v 0.0131996 -0.00899582 -0.00672554 
v 0.011985 -0.00846668 -0.00870758 
v 0.0104753 -0.0079375 -0.0104753 
v 0.00870758 -0.00740832 -0.011985 
v 0.00672554 -0.00687918 -0.0131996 
v 0.00457786 -0.00635001 -0.0140892 
v 0.00231744 -0.00582082 -0.0146319 
v 4.76126e-17 -0.00529167 -0.0148142 
v -0.00231744 -0.00476251 -0.0146319 
v -0.00457786 -0.00423333 -0.0140892 
v -0.00672554 -0.00370416 -0.0131996 
v -0.00870758 -0.00317501 -0.011985 
v -0.0104753 -0.00264583 -0.0104753 
v -0.011985 -0.00211665 -0.00870758 
v -0.0131996 -0.00158751 -0.00672554 
v -0.0140892 -0.00105834 -0.00457786 
v -0.0146319 -0.000529155 -0.00231744 
v -0.0148142 0 -2.87096e-17 
l 1/ 2/ 3/ 4/ 5/ 6/ 7/ 8/ 9/ 10/ 11/ 12/ 13/ 14/ 15/ 16/ 17/ 18/ 19/ 20/ 21/ 22/ 23/ 24/ 25/ 26/ 27/ 28/ 29/ 30/ 31/ 32/ 33/ 34/ 35/ 36/ 37/ 38/ 39/ 40/ 41/ 42/ 43/ 44/ 45/ 46/ 47/ 48/ 49/ 50/ 51/ 52/ 53/ 54/ 55/ 56/ 57/ 58/ 59/ 60/ 61/ 62/ 63/ 64/ 65/ 66/ 67/ 68/ 69/ 70/ 71/ 72/ 73/ 74/ 75/ 76/ 77/ 78/ 79/ 80/ 81/ 82/ 83/ 84/ 85/ 86/ 87/ 88/ 89/ 90/ 91/ 92/ 93/ 94/ 95/ 96/ 97/ 98/ 99/ 100/ 101/ 102/ 103/ 104/ 105/ 106/ 107/ 108/ 109/ 110/ 111/ 112/ 113/ 114/ 115/ 116/ 117/ 118/ 119/ 120/ 121/ 122/ 123/ 124/ 125/ 126/ 127/ 128/ 129/ 130/ 131/ 132/ 133/ 134/ 135/ 136/ 137/ 138/ 139/ 140/ 141/ 142/ 143/ 144/ 145/ 146/ 147/ 148/ 149/ 150/ 151/ 152/ 153/ 154/ 155/ 156/ 157/ 158/ 159/ 160/ 161/ 162/ 163/ 164/ 165/ 166/ 167/ 168/ 169/ 170/ 171/ 172/ 173/ 174/ 175/ 176/ 177/ 178/ 179/ 180/ 181/ 182/ 183/ 184/ 185/ 186/ 187/ 188/ 189/ 190/ 191/ 192/ 193/ 194/ 195/ 196/ 197/ 198/ 199/ 200/ 201/ 202/ 203/ 204/ 205/ 206/ 207/ 208/ 209/ 210/ 211/ 212/ 213/ 214/ 215/ 216/ 217/ 218/ 219/ 220/ 221/ 222/ 223/ 224/ 225/ 226/ 227/ 228/ 229/ 230/ 231/ 232/ 233/ 234/ 235/ 236/ 237/ 238/ 239/ 240/ 241/ 
o mesh1
v -0.0148142 0 -2.87096e-17 
p 242 
o mesh2
v -0.0148142 -0.127 -6.93889e-18 
p 243 
g Part 1
v 0 0 0.0472992 
v 0 -0.127 0.0472992 
v 0.00206316 -0.127 0.0472542 
v 0.00206316 0 0.0472542 
v 0.0041224 -0.127 0.0471192 
v 0.0041224 0 0.0471192 
v 0.00617379 -0.127 0.0468946 
v 0.00617379 0 0.0468946 
v 0.00821342 -0.127 0.0465806 
v 0.00821342 0 0.0465806 
v 0.0102374 -0.127 0.046178 
v 0.0102374 0 0.046178 
v 0.0122419 -0.127 0.0456875 
v 0.0122419 0 0.0456875 
v 0.0142231 -0.127 0.0451101 
v 0.0142231 0 0.0451101 
v 0.0161773 -0.127 0.0444467 
v 0.0161773 0 0.0444467 
v 0.0181006 -0.127 0.0436988 
v 0.0181006 0 0.0436988 
v 0.0199895 -0.127 0.0428676 
v 0.0199895 0 0.0428676 
v 0.0218403 -0.127 0.0419549 
v 0.0218403 0 0.0419549 
v 0.0236496 -0.127 0.0409623 
v 0.0236496 0 0.0409623 
v 0.0254138 -0.127 0.0398917 
v 0.0254138 0 0.0398917 
v 0.0271297 -0.127 0.0387452 
v 0.0271297 0 0.0387452 
v 0.0287939 -0.127 0.037525 
v 0.0287939 0 0.037525 
v 0.0304033 -0.127 0.0362333 
v 0.0304033 0 0.0362333 
v 0.0319549 -0.127 0.0348726 
v 0.0319549 0 0.0348726 
v 0.0334456 -0.127 0.0334456 
v 0.0334456 0 0.0334456 
v 0.0348726 -0.127 0.0319549 
v 0.0348726 0 0.0319549 
v 0.0362333 -0.127 0.0304033 
v 0.0362333 0 0.0304033 
v 0.037525 -0.127 0.0287939 
v 0.037525 0 0.0287939 
v 0.0387452 -0.127 0.0271297 
v 0.0387452 0 0.0271297 
v 0.0398917 -0.127 0.0254138 
v 0.0398917 0 0.0254138 
v 0.0409623 -0.127 0.0236496 
v 0.0409623 0 0.0236496 
v 0.0419549 -0.127 0.0218403 
v 0.0419549 0 0.0218403 
v 0.0428676 -0.127 0.0199895 
v 0.0428676 0 0.0199895 
v 0.0436988 -0.127 0.0181006 
v 0.0436988 0 0.0181006 
v 0.0444467 -0.127 0.0161773 
v 0.0444467 0 0.0161773 
v 0.0451101 -0.127 0.0142231 
v 0.0451101 0 0.0142231 
v 0.0456875 -0.127 0.0122419 
v 0.0456875 0 0.0122419 
v 0.046178 -0.127 0.0102374 
v 0.046178 0 0.0102374 
v 0.0465806 -0.127 0.00821342 
v 0.0465806 0 0.00821342 
v 0.0468946 -0.127 0.00617379 
v 0.0468946 0 0.00617379 
v 0.0471192 -0.127 0.0041224 
v 0.0471192 0 0.0041224 
v 0.0472542 -0.127 0.00206316 
v 0.0472542 0 0.00206316 
v 0.0472992 -0.127 5.79248e-18 
v 0.0472992 0 5.79248e-18 
v 0.0472542 -0.127 -0.00206316 
v 0.0472542 0 -0.00206316 
v 0.0471192 -0.127 -0.0041224 
v 0.0471192 0 -0.0041224 
v 0.0468946 -0.127 -0.00617379 
v 0.0468946 0 -0.00617379 
v 0.0465806 -0.127 -0.00821342 
v 0.0465806 0 -0.00821342 
v 0.046178 -0.127 -0.0102374 
v 0.046178 0 -0.0102374 
v 0.0456875 -0.127 -0.0122419 
v 0.0456875 0 -0.0122419 
v 0.0451101 -0.127 -0.0142231 
v 0.0451101 0 -0.0142231 
v 0.0444467 -0.127 -0.0161773 
v 0.0444467 0 -0.0161773 
v 0.0436988 -0.127 -0.0181006 
v 0.0436988 0 -0.0181006 
v 0.0428676 -0.127 -0.0199895 
v 0.0428676 0 -0.0199895 
v 0.0419549 -0.127 -0.0218403 
v 0.0419549 0 -0.0218403 
v 0.0409623 -0.127 -0.0236496 
v 0.0409623 0 -0.0236496 
v 0.0398917 -0.127 -0.0254138 
v 0.0398917 0 -0.0254138 
v 0.0387452 -0.127 -0.0271297 
v 0.0387452 0 -0.0271297 
v 0.037525 -0.127 -0.0287939 
v 0.037525 0 -0.0287939 
v 0.0362333 -0.127 -0.0304033 
v 0.0362333 0 -0.0304033 
v 0.0348726 -0.127 -0.0319549 
v 0.0348726 0 -0.0319549 
v 0.0334456 -0.127 -0.0334456 
v 0.0334456 0 -0.0334456 
v 0.0319549 -0.127 -0.0348726 
v 0.0319549 0 -0.0348726 
v 0.0304033 -0.127 -0.0362333 
v 0.0304033 0 -0.0362333 
v 0.0287939 -0.127 -0.037525 
v 0.0287939 0 -0.037525 
v 0.0271297 -0.127 -0.0387452 
v 0.0271297 0 -0.0387452 
v 0.0254138 -0.127 -0.0398917 
v 0.0254138 0 -0.0398917 
v 0.0236496 -0.127 -0.0409623 
v 0.0236496 0 -0.0409623 
v 0.0218403 -0.127 -0.0419549 
v 0.0218403 0 -0.0419549 
v 0.0199895 -0.127 -0.0428676 
v 0.0199895 0 -0.0428676 
v 0.0181006 -0.127 -0.0436988 
v 0.0181006 0 -0.0436988 
v 0.0161773 -0.127 -0.0444467 
v 0.0161773 0 -0.0444467 
v 0.0142231 -0.127 -0.0451101 
v 0.0142231 0 -0.0451101 
v 0.0122419 -0.127 -0.0456875 
v 0.0122419 0 -0.0456875 
v 0.0102374 -0.127 -0.046178 
v 0.0102374 0 -0.046178 
v 0.00821342 -0.127 -0.0465806 
v 0.00821342 0 -0.0465806 
v 0.00617379 -0.127 -0.0468946 
v 0.00617379 0 -0.0468946 
v 0.0041224 -0.127 -0.0471192 
v 0.0041224 0 -0.0471192 
v 0.00206316 -0.127 -0.0472542 
v 0.00206316 0 -0.0472542 
v 1.73774e-17 -0.127 -0.0472992 
v 5.79248e-18 0 -0.0472992 
v -0.00206316 -0.127 -0.0472542 
v -0.00206316 0 -0.0472542 
v -0.0041224 -0.127 -0.0471192 
v -0.0041224 0 -0.0471192 
v -0.00617379 -0.127 -0.0468946 
v -0.00617379 0 -0.0468946 
v -0.00821342 -0.127 -0.0465806 
v -0.00821342 0 -0.0465806 
v -0.0102374 -0.127 -0.046178 
v -0.0102374 0 -0.046178 
v -0.0122419 -0.127 -0.0456875 
v -0.0122419 0 -0.0456875 
v -0.0142231 -0.127 -0.0451101 
v -0.0142231 0 -0.0451101 
v -0.0161773 -0.127 -0.0444467 
v -0.0161773 0 -0.0444467 
v -0.0181006 -0.127 -0.0436988 
v -0.0181006 0 -0.0436988 
v -0.0199895 -0.127 -0.0428676 
v -0.0199895 0 -0.0428676 
v -0.0218403 -0.127 -0.0419549 
v -0.0218403 0 -0.0419549 
v -0.0236496 -0.127 -0.0409623 
v -0.0236496 0 -0.0409623 
v -0.0254138 -0.127 -0.0398917 
v -0.0254138 0 -0.0398917 
v -0.0271297 -0.127 -0.0387452 
v -0.0271297 0 -0.0387452 
v -0.0287939 -0.127 -0.037525 
v -0.0287939 0 -0.037525 
v -0.0304033 -0.127 -0.0362333 
v -0.0304033 0 -0.0362333 
v -0.0319549 -0.127 -0.0348726 
v -0.0319549 0 -0.0348726 
v -0.0334456 -0.127 -0.0334456 
v -0.0334456 0 -0.0334456 
v -0.0348726 -0.127 -0.0319549 
v -0.0348726 0 -0.0319549 
v -0.0362333 -0.127 -0.0304033 
v -0.0362333 0 -0.0304033 
v -0.037525 -0.127 -0.0287939 
v -0.037525 0 -0.0287939 
v -0.0387452 -0.127 -0.0271297 
v -0.0387452 0 -0.0271297 
v -0.0398917 -0.127 -0.0254138 
v -0.0398917 0 -0.0254138 
v -0.0409623 -0.127 -0.0236496 
v -0.0409623 0 -0.0236496 
v -0.0419549 -0.127 -0.0218403 
v -0.0419549 0 -0.0218403 
v -0.0428676 -0.127 -0.0199895 
v -0.0428676 0 -0.0199895 
v -0.0436988 -0.127 -0.0181006 
v -0.0436988 0 -0.0181006 
v -0.0444467 -0.127 -0.0161773 
v -0.0444467 0 -0.0161773 
v -0.0451101 -0.127 -0.0142231 
v -0.0451101 0 -0.0142231 
v -0.0456875 -0.127 -0.0122419 
v -0.0456875 0 -0.0122419 
v -0.046178 -0.127 -0.0102374 
v -0.046178 0 -0.0102374 
v -0.0465806 -0.127 -0.00821342 
v -0.0465806 0 -0.00821342 
v -0.0468946 -0.127 -0.00617379 
v -0.0468946 0 -0.00617379 
v -0.0471192 -0.127 -0.0041224 
v -0.0471192 0 -0.0041224 
v -0.0472542 -0.127 -0.00206316 
v -0.0472542 0 -0.00206316 
v -0.0472992 -0.127 -5.79248e-18 
v -0.0472992 0 -5.79248e-18 
v -0.0472542 -0.127 0.00206316 
v -0.0472542 0 0.00206316 
v -0.0471192 -0.127 0.0041224 
v -0.0471192 0 0.0041224 
v -0.0468946 -0.127 0.00617379 
v -0.0468946 0 0.00617379 
v -0.0465806 -0.127 0.00821342 
v -0.0465806 0 0.00821342 
v -0.046178 -0.127 0.0102374 
v -0.046178 0 0.0102374 
v -0.0456875 -0.127 0.0122419 
v -0.0456875 0 0.0122419 
v -0.0451101 -0.127 0.0142231 
v -0.0451101 0 0.0142231 
v -0.0444467 -0.127 0.0161773 
v -0.0444467 0 0.0161773 
v -0.0436988 -0.127 0.0181006 
v -0.0436988 0 0.0181006 
v -0.0428676 -0.127 0.0199895 
v -0.0428676 0 0.0199895 
v -0.0419549 -0.127 0.0218403 
v -0.0419549 0 0.0218403 
v -0.0409623 -0.127 0.0236496 
v -0.0409623 0 0.0236496 
v -0.0398917 -0.127 0.0254138 
v -0.0398917 0 0.0254138 
v -0.0387452 -0.127 0.0271297 
v -0.0387452 0 0.0271297 
v -0.037525 -0.127 0.0287939 
v -0.037525 0 0.0287939 
v -0.0362333 -0.127 0.0304033 
v -0.0362333 0 0.0304033 
v -0.0348726 -0.127 0.0319549 
v -0.0348726 0 0.0319549 
v -0.0334456 -0.127 0.0334456 
v -0.0334456 0 0.0334456 
v -0.0319549 -0.127 0.0348726 
v -0.0319549 0 0.0348726 
v -0.0304033 -0.127 0.0362333 
v -0.0304033 0 0.0362333 
v -0.0287939 -0.127 0.037525 
v -0.0287939 0 0.037525 
v -0.0271297 -0.127 0.0387452 
v -0.0271297 0 0.0387452 
v -0.0254138 -0.127 0.0398917 
v -0.0254138 0 0.0398917 
v -0.0236496 -0.127 0.0409623 
v -0.0236496 0 0.0409623 
v -0.0218403 -0.127 0.0419549 
v -0.0218403 0 0.0419549 
v -0.0199895 -0.127 0.0428676 
v -0.0199895 0 0.0428676 
v -0.0181006 -0.127 0.0436988 
v -0.0181006 0 0.0436988 
v -0.0161773 -0.127 0.0444467 
v -0.0161773 0 0.0444467 
v -0.0142231 -0.127 0.0451101 
v -0.0142231 0 0.0451101 
v -0.0122419 -0.127 0.0456875 
v -0.0122419 0 0.0456875 
v -0.0102374 -0.127 0.046178 
v -0.0102374 0 0.046178 
v -0.00821342 -0.127 0.0465806 
v -0.00821342 0 0.0465806 
v -0.00617379 -0.127 0.0468946 
v -0.00617379 0 0.0468946 
v -0.0041224 -0.127 0.0471192 
v -0.0041224 0 0.0471192 
v -0.00206316 -0.127 0.0472542 
v -0.00206316 0 0.0472542 
v -0.0139208 -0.127 0.00506677 
v -0.0136866 -0.127 0.00566917 
v -0.0141286 -0.127 0.00445473 
v 0.0124942 -0.127 -0.00795969 
v 0.0121351 -0.127 -0.0084971 
v 0.0128295 -0.127 -0.00740712 
v 0.0148142 -0.127 -6.03178e-18 
v 0.0148001 -0.127 -0.000646188 
v 0.0148001 -0.127 0.000646188 
v 0.0143095 -0.127 0.00383421 
v 0.0144631 -0.127 0.00320639 
v 0.0141286 -0.127 0.00445473 
v 0.0136866 -0.127 0.00566917 
v 0.0134263 -0.127 0.00626077 
v 0.00383421 -0.127 0.0143095 
v 0.00445473 -0.127 0.0141286 
v 0.00320639 -0.127 0.0144631 
v -0.00566917 -0.127 0.0136866 
v -0.00506677 -0.127 0.0139208 
v -0.00626077 -0.127 0.0134263 
v -0.0134263 -0.127 0.00626077 
v 0.0131404 -0.127 -0.00684046 
v 0.0136866 -0.127 -0.00566917 
v 0.0134263 -0.127 -0.00626077 
v 0.0139208 -0.127 -0.00506677 
v 0.0143095 -0.127 -0.00383421 
v 0.0141286 -0.127 -0.00445473 
v 0.0144631 -0.127 -0.00320639 
v 0.0147579 -0.127 -0.00129115 
v 0.0146875 -0.127 0.00193365 
v 0.0147579 -0.127 0.00129115 
v 0.0145892 -0.127 0.00257247 
v 0.0139208 -0.127 0.00506677 
v 0.0131404 -0.127 0.00684046 
v 0.0128295 -0.127 0.00740712 
v 0.00257247 -0.127 0.0145892 
v 0.00193365 -0.127 0.0146875 
v 0.00129115 -0.127 0.0147579 
v 0.000646188 -0.127 0.0148001 
v 4.33681e-19 -0.127 0.0148142 
v -0.000646188 -0.127 0.0148001 
v -0.00129115 -0.127 0.0147579 
v -0.00445473 -0.127 0.0141286 
v -0.0143095 -0.127 0.00383421 
v 0.0145892 -0.127 -0.00257247 
v 0.0146875 -0.127 -0.00193365 
v 0.0124942 -0.127 0.00795969 
v 0.0121351 -0.127 0.0084971 
v 0.00506677 -0.127 0.0139208 
v -0.00684046 -0.127 0.0131404 
v -0.00740712 -0.127 0.0128295 
v -0.00795969 -0.127 0.0124942 
v -0.0144631 -0.127 0.00320639 
v 0.00901834 -0.127 0.0117529 
v 0.0084971 -0.127 0.0121351 
v 0.00684046 -0.127 0.0131404 
v 0.00740712 -0.127 0.0128295 
v 0.00626077 -0.127 0.0134263 
v 0.00566917 -0.127 0.0136866 
v -0.00193365 -0.127 0.0146875 
v -0.00257247 -0.127 0.0145892 
v -0.00383421 -0.127 0.0143095 
v -0.0084971 -0.127 0.0121351 
v -0.00901834 -0.127 0.0117529 
v -0.00952241 -0.127 0.0113484 
v -0.0145892 -0.127 0.00257247 
v -0.0147579 -0.127 0.00129115 
v -0.0146875 -0.127 0.00193365 
v -0.0148001 -0.127 0.000646188 
v 0.00445473 -0.127 -0.0141286 
v 0.00383421 -0.127 -0.0143095 
v 0.00506677 -0.127 -0.0139208 
v 0.0117529 -0.127 0.00901834 
v 0.0113484 -0.127 0.00952241 
v 0.0104753 -0.127 0.0104753 
v 0.0109222 -0.127 0.0100084 
v 0.0100084 -0.127 0.0109222 
v 0.00952241 -0.127 0.0113484 
v 0.00795969 -0.127 0.0124942 
v -0.00320639 -0.127 0.0144631 
v -0.0100084 -0.127 0.0109222 
v -0.0148142 -0.127 -9.66023e-18 
v -0.0144631 -0.127 -0.00320639 
v -0.0145892 -0.127 -0.00257247 
v -0.0143095 -0.127 -0.00383421 
v -0.0141286 -0.127 -0.00445473 
v -0.0139208 -0.127 -0.00506677 
v -0.0136866 -0.127 -0.00566917 
v -0.0134263 -0.127 -0.00626077 
v -0.0128295 -0.127 -0.00740712 
v -0.0131404 -0.127 -0.00684046 
v -0.0124942 -0.127 -0.00795969 
v 0.00566917 -0.127 -0.0136866 
v 0.00626077 -0.127 -0.0134263 
v 0.00684046 -0.127 -0.0131404 
v -0.0148001 -0.127 -0.000646188 
v -0.0147579 -0.127 -0.00129115 
v -0.0146875 -0.127 -0.00193365 
v -0.0121351 -0.127 -0.0084971 
v -0.0104753 -0.127 0.0104753 
v -0.0109222 -0.127 0.0100084 
v -0.0117529 -0.127 0.00901834 
v -0.0113484 -0.127 0.00952241 
v -0.0121351 -0.127 0.0084971 
v -0.0124942 -0.127 0.00795969 
v -0.0128295 -0.127 0.00740712 
v -0.0131404 -0.127 0.00684046 
v -0.0117529 -0.127 -0.00901834 
v -0.0113484 -0.127 -0.00952241 
v -0.0109222 -0.127 -0.0100084 
v -0.0104753 -0.127 -0.0104753 
v -0.00952241 -0.127 -0.0113484 
v -0.0100084 -0.127 -0.0109222 
v -0.00901834 -0.127 -0.0117529 
v -0.0084971 -0.127 -0.0121351 
v -0.00795969 -0.127 -0.0124942 
v 0.000646188 -0.127 -0.0148001 
v 0.00129115 -0.127 -0.0147579 
v 0.00193365 -0.127 -0.0146875 
v 0.00257247 -0.127 -0.0145892 
v 0.00320639 -0.127 -0.0144631 
v 0.00740712 -0.127 -0.0128295 
v 0.00795969 -0.127 -0.0124942 
v 0.0084971 -0.127 -0.0121351 
v -0.00506677 -0.127 -0.0139208 
v -0.00566917 -0.127 -0.0136866 
v -0.00445473 -0.127 -0.0141286 
v 0.00901834 -0.127 -0.0117529 
v 0.00952241 -0.127 -0.0113484 
v 0.0100084 -0.127 -0.0109222 
v -0.00626077 -0.127 -0.0134263 
v -0.00193365 -0.127 -0.0146875 
v -0.00257247 -0.127 -0.0145892 
v -0.00129115 -0.127 -0.0147579 
v -0.00684046 -0.127 -0.0131404 
v -0.00740712 -0.127 -0.0128295 
v -0.00383421 -0.127 -0.0143095 
v -0.00320639 -0.127 -0.0144631 
v -0.000646188 -0.127 -0.0148001 
v 0.0104753 -0.127 -0.0104753 
v 0.0109222 -0.127 -0.0100084 
v 0.0113484 -0.127 -0.00952241 
v 0.0117529 -0.127 -0.00901834 
v 2.2479e-18 -0.127 -0.0148142 
v -0.000646188 0 0.0148001 
v 4.33681e-19 0 0.0148142 
v -0.00129115 0 0.0147579 
v -0.00193365 0 0.0146875 
v -0.00257247 0 0.0145892 
v -0.00320639 0 0.0144631 
v -0.00383421 0 0.0143095 
v -0.00445473 0 0.0141286 
v -0.00506677 0 0.0139208 
v -0.00566917 0 0.0136866 
v -0.00626077 0 0.0134263 
v -0.00684046 0 0.0131404 
v -0.00740712 0 0.0128295 
v -0.00795969 0 0.0124942 
v -0.0084971 0 0.0121351 
v -0.00901834 0 0.0117529 
v -0.00952241 0 0.0113484 
v -0.0100084 0 0.0109222 
v -0.0104753 0 0.0104753 
v -0.0109222 0 0.0100084 
v -0.0113484 0 0.00952241 
v -0.0117529 0 0.00901834 
v -0.0121351 0 0.0084971 
v -0.0124942 0 0.00795969 
v -0.0128295 0 0.00740712 
v -0.0131404 0 0.00684046 
v -0.0134263 0 0.00626077 
v -0.0136866 0 0.00566917 
v -0.0139208 0 0.00506677 
v -0.0141286 0 0.00445473 
v -0.0143095 0 0.00383421 
v -0.0144631 0 0.00320639 
v -0.0145892 0 0.00257247 
v -0.0146875 0 0.00193365 
v -0.0147579 0 0.00129115 
v -0.0148001 0 0.000646188 
v -0.0148142 0 -9.66023e-18 
v -0.0148001 0 -0.000646188 
v -0.0147579 0 -0.00129115 
v -0.0146875 0 -0.00193365 
v -0.0145892 0 -0.00257247 
v -0.0144631 0 -0.00320639 
v -0.0143095 0 -0.00383421 
v -0.0141286 0 -0.00445473 
v -0.0139208 0 -0.00506677 
v -0.0136866 0 -0.00566917 
v -0.0134263 0 -0.00626077 
v -0.0131404 0 -0.00684046 
v -0.0128295 0 -0.00740712 
v -0.0124942 0 -0.00795969 
v -0.0121351 0 -0.0084971 
v -0.0117529 0 -0.00901834 
v -0.0113484 0 -0.00952241 
v -0.0109222 0 -0.0100084 
v -0.0104753 0 -0.0104753 
v -0.0100084 0 -0.0109222 
v -0.00952241 0 -0.0113484 
v -0.00901834 0 -0.0117529 
v -0.0084971 0 -0.0121351 
v -0.00795969 0 -0.0124942 
v -0.00740712 0 -0.0128295 
v -0.00684046 0 -0.0131404 
v -0.00626077 0 -0.0134263 
v -0.00566917 0 -0.0136866 
v -0.00506677 0 -0.0139208 
v -0.00445473 0 -0.0141286 
v -0.00383421 0 -0.0143095 
v -0.00320639 0 -0.0144631 
v -0.00257247 0 -0.0145892 
v -0.00193365 0 -0.0146875 
v -0.00129115 0 -0.0147579 
v -0.000646188 0 -0.0148001 
v 5.87635e-18 0 -0.0148142 
v 0.000646188 0 -0.0148001 
v 0.00129115 0 -0.0147579 
v 0.00193365 0 -0.0146875 
v 0.00257247 0 -0.0145892 
v 0.00320639 0 -0.0144631 
v 0.00383421 0 -0.0143095 
v 0.00445473 0 -0.0141286 
v 0.00506677 0 -0.0139208 
v 0.00566917 0 -0.0136866 
v 0.00626077 0 -0.0134263 
v 0.00684046 0 -0.0131404 
v 0.00740712 0 -0.0128295 
v 0.00795969 0 -0.0124942 
v 0.0084971 0 -0.0121351 
v 0.00901834 0 -0.0117529 
v 0.00952241 0 -0.0113484 
v 0.0100084 0 -0.0109222 
v 0.0104753 0 -0.0104753 
v 0.0109222 0 -0.0100084 
v 0.0113484 0 -0.00952241 
v 0.0117529 0 -0.00901834 
v 0.0121351 0 -0.0084971 
v 0.0124942 0 -0.00795969 
v 0.0128295 0 -0.00740712 
v 0.0131404 0 -0.00684046 
v 0.0134263 0 -0.00626077 
v 0.0136866 0 -0.00566917 
v 0.0139208 0 -0.00506677 
v 0.0141286 0 -0.00445473 
v 0.0143095 0 -0.00383421 
v 0.0144631 0 -0.00320639 
v 0.0145892 0 -0.00257247 
v 0.0146875 0 -0.00193365 
v 0.0147579 0 -0.00129115 
v 0.0148001 0 -0.000646188 
v 0.0148142 0 -6.03178e-18 
v 0.0148001 0 0.000646188 
v 0.0147579 0 0.00129115 
v 0.0146875 0 0.00193365 
v 0.0145892 0 0.00257247 
v 0.0144631 0 0.00320639 
v 0.0143095 0 0.00383421 
v 0.0141286 0 0.00445473 
v 0.0139208 0 0.00506677 
v 0.0136866 0 0.00566917 
v 0.0134263 0 0.00626077 
v 0.0131404 0 0.00684046 
v 0.0128295 0 0.00740712 
v 0.0124942 0 0.00795969 
v 0.0121351 0 0.0084971 
v 0.0117529 0 0.00901834 
v 0.0113484 0 0.00952241 
v 0.0109222 0 0.0100084 
v 0.0104753 0 0.0104753 
v 0.0100084 0 0.0109222 
v 0.00952241 0 0.0113484 
v 0.00901834 0 0.0117529 
v 0.0084971 0 0.0121351 
v 0.00795969 0 0.0124942 
v 0.00740712 0 0.0128295 
v 0.00684046 0 0.0131404 
v 0.00626077 0 0.0134263 
v 0.00566917 0 0.0136866 
v 0.00506677 0 0.0139208 
v 0.00445473 0 0.0141286 
v 0.00383421 0 0.0143095 
v 0.00320639 0 0.0144631 
v 0.00257247 0 0.0145892 
v 0.00193365 0 0.0146875 
v 0.00129115 0 0.0147579 
v 0.000646188 0 0.0148001 
vn 0 0 1 
vn 0.0436194 0 0.999048 
vn 0.0871557 0 0.996195 
vn 0.130526 0 0.991445 
vn 0.173648 0 0.984808 
vn 0.21644 0 0.976296 
vn 0.258819 0 0.965926 
vn 0.300706 0 0.953717 
vn 0.34202 0 0.939693 
vn 0.382683 0 0.92388 
vn 0.422618 0 0.906308 
vn 0.461749 0 0.887011 
vn 0.5 0 0.866025 
vn 0.5373 0 0.843391 
vn 0.573576 0 0.819152 
vn 0.608761 0 0.793353 
vn 0.642788 0 0.766044 
vn 0.67559 0 0.737277 
vn 0.707107 0 0.707107 
vn 0.737277 0 0.67559 
vn 0.766044 0 0.642788 
vn 0.793353 0 0.608761 
vn 0.819152 0 0.573576 
vn 0.843391 0 0.5373 
vn 0.866025 0 0.5 
vn 0.887011 0 0.461749 
vn 0.906308 0 0.422618 
vn 0.92388 0 0.382683 
vn 0.939693 0 0.34202 
vn 0.953717 0 0.300706 
vn 0.965926 0 0.258819 
vn 0.976296 0 0.21644 
vn 0.984808 0 0.173648 
vn 0.991445 0 0.130526 
vn 0.996195 0 0.0871557 
vn 0.999048 0 0.0436194 
vn 1 0 6.12323e-17 
vn 0.999048 0 -0.0436194 
vn 0.996195 0 -0.0871557 
vn 0.991445 0 -0.130526 
vn 0.984808 0 -0.173648 
vn 0.976296 0 -0.21644 
vn 0.965926 0 -0.258819 
vn 0.953717 0 -0.300706 
vn 0.939693 0 -0.34202 
vn 0.92388 0 -0.382683 
vn 0.906308 0 -0.422618 
vn 0.887011 0 -0.461749 
vn 0.866025 0 -0.5 
vn 0.843391 0 -0.5373 
vn 0.819152 0 -0.573576 
vn 0.793353 0 -0.608761 
vn 0.766044 0 -0.642788 
vn 0.737277 0 -0.67559 
vn 0.707107 0 -0.707107 
vn 0.67559 0 -0.737277 
vn 0.642788 0 -0.766044 
vn 0.608761 0 -0.793353 
vn 0.573576 0 -0.819152 
vn 0.5373 0 -0.843391 
vn 0.5 0 -0.866025 
vn 0.461749 0 -0.887011 
vn 0.422618 0 -0.906308 
vn 0.382683 0 -0.92388 
vn 0.34202 0 -0.939693 
vn 0.300706 0 -0.953717 
vn 0.258819 0 -0.965926 
vn 0.21644 0 -0.976296 
vn 0.173648 0 -0.984808 
vn 0.130526 0 -0.991445 
vn 0.0871557 0 -0.996195 
vn 0.0436194 0 -0.999048 
vn 1.22465e-16 0 -1 
vn -0.0436194 0 -0.999048 
vn -0.0871557 0 -0.996195 
vn -0.130526 0 -0.991445 
vn -0.173648 0 -0.984808 
vn -0.21644 0 -0.976296 
vn -0.258819 0 -0.965926 
vn -0.300706 0 -0.953717 
vn -0.34202 0 -0.939693 
vn -0.382683 0 -0.92388 
vn -0.422618 0 -0.906308 
vn -0.461749 0 -0.887011 
vn -0.5 0 -0.866025 
vn -0.5373 0 -0.843391 
vn -0.573576 0 -0.819152 
vn -0.608761 0 -0.793353 
vn -0.642788 0 -0.766044 
vn -0.67559 0 -0.737277 
vn -0.707107 0 -0.707107 
vn -0.737277 0 -0.67559 
vn -0.766044 0 -0.642788 
vn -0.793353 0 -0.608761 
vn -0.819152 0 -0.573576 
vn -0.843391 0 -0.5373 
vn -0.866025 0 -0.5 
vn -0.887011 0 -0.461749 
vn -0.906308 0 -0.422618 
vn -0.92388 0 -0.382683 
vn -0.939693 0 -0.34202 
vn -0.953717 0 -0.300706 
vn -0.965926 0 -0.258819 
vn -0.976296 0 -0.21644 
vn -0.984808 0 -0.173648 
vn -0.991445 0 -0.130526 
vn -0.996195 0 -0.0871557 
vn -0.999048 0 -0.0436194 
vn -1 0 -1.83697e-16 
vn -0.999048 0 0.0436194 
vn -0.996195 0 0.0871557 
vn -0.991445 0 0.130526 
vn -0.984808 0 0.173648 
vn -0.976296 0 0.21644 
vn -0.965926 0 0.258819 
vn -0.953717 0 0.300706 
vn -0.939693 0 0.34202 
vn -0.92388 0 0.382683 
vn -0.906308 0 0.422618 
vn -0.887011 0 0.461749 
vn -0.866025 0 0.5 
vn -0.843391 0 0.5373 
vn -0.819152 0 0.573576 
vn -0.793353 0 0.608761 
vn -0.766044 0 0.642788 
vn -0.737277 0 0.67559 
vn -0.707107 0 0.707107 
vn -0.67559 0 0.737277 
vn -0.642788 0 0.766044 
vn -0.608761 0 0.793353 
vn -0.573576 0 0.819152 
vn -0.5373 0 0.843391 
vn -0.5 0 0.866025 
vn -0.461749 0 0.887011 
vn -0.422618 0 0.906308 
vn -0.382683 0 0.92388 
vn -0.34202 0 0.939693 
vn -0.300706 0 0.953717 
vn -0.258819 0 0.965926 
vn -0.21644 0 0.976296 
vn -0.173648 0 0.984808 
vn -0.130526 0 0.991445 
vn -0.0871557 0 0.996195 
vn -0.0436194 0 0.999048 
vn 0 -1 0 
vn 0.0436194 0 -0.999048 
vn 2.44929e-16 0 -1 
vn 0.0871557 0 -0.996195 
vn 0.0436194 0 -0.999048 
vn 0.130526 0 -0.991445 
vn 0.0871557 0 -0.996195 
vn 0.173648 0 -0.984808 
vn 0.130526 0 -0.991445 
vn 0.21644 0 -0.976296 
vn 0.173648 0 -0.984808 
vn 0.258819 0 -0.965926 
vn 0.21644 0 -0.976296 
vn 0.300706 0 -0.953717 
vn 0.258819 0 -0.965926 
vn 0.34202 0 -0.939693 
vn 0.300706 0 -0.953717 
vn 0.382683 0 -0.92388 
vn 0.34202 0 -0.939693 
vn 0.422618 0 -0.906308 
vn 0.382683 0 -0.92388 
vn 0.461749 0 -0.887011 
vn 0.422618 0 -0.906308 
vn 0.5 0 -0.866025 
vn 0.461749 0 -0.887011 
vn 0.5373 0 -0.843391 
vn 0.5 0 -0.866025 
vn 0.573576 0 -0.819152 
vn 0.5373 0 -0.843391 
vn 0.608761 0 -0.793353 
vn 0.573576 0 -0.819152 
vn 0.642788 0 -0.766044 
vn 0.608761 0 -0.793353 
vn 0.67559 0 -0.737277 
vn 0.642788 0 -0.766044 
vn 0.707107 0 -0.707107 
vn 0.67559 0 -0.737277 
vn 0.737277 0 -0.67559 
vn 0.707107 0 -0.707107 
vn 0.766044 0 -0.642788 
vn 0.737277 0 -0.67559 
vn 0.793353 0 -0.608761 
vn 0.766044 0 -0.642788 
vn 0.819152 0 -0.573576 
vn 0.793353 0 -0.608761 
vn 0.843391 0 -0.5373 
vn 0.819152 0 -0.573576 
vn 0.866025 0 -0.5 
vn 0.843391 0 -0.5373 
vn 0.887011 0 -0.461749 
vn 0.866025 0 -0.5 
vn 0.906308 0 -0.422618 
vn 0.887011 0 -0.461749 
vn 0.92388 0 -0.382683 
vn 0.906308 0 -0.422618 
vn 0.939693 0 -0.34202 
vn 0.92388 0 -0.382683 
vn 0.953717 0 -0.300706 
vn 0.939693 0 -0.34202 
vn 0.965926 0 -0.258819 
vn 0.953717 0 -0.300706 
vn 0.976296 0 -0.21644 
vn 0.965926 0 -0.258819 
vn 0.984808 0 -0.173648 
vn 0.976296 0 -0.21644 
vn 0.991445 0 -0.130526 
vn 0.984808 0 -0.173648 
vn 0.996195 0 -0.0871557 
vn 0.991445 0 -0.130526 
vn 0.999048 0 -0.0436194 
vn 0.996195 0 -0.0871557 
vn 1 0 1.83697e-16 
vn 0.999048 0 -0.0436194 
vn 0.999048 0 0.0436194 
vn 1 0 1.83697e-16 
vn 0.996195 0 0.0871557 
vn 0.999048 0 0.0436194 
vn 0.991445 0 0.130526 
vn 0.996195 0 0.0871557 
vn 0.984808 0 0.173648 
vn 0.991445 0 0.130526 
vn 0.976296 0 0.21644 
vn 0.984808 0 0.173648 
vn 0.965926 0 0.258819 
vn 0.976296 0 0.21644 
vn 0.953717 0 0.300706 
vn 0.965926 0 0.258819 
vn 0.939693 0 0.34202 
vn 0.953717 0 0.300706 
vn 0.92388 0 0.382683 
vn 0.939693 0 0.34202 
vn 0.906308 0 0.422618 
vn 0.92388 0 0.382683 
vn 0.887011 0 0.461749 
vn 0.906308 0 0.422618 
vn 0.866025 0 0.5 
vn 0.887011 0 0.461749 
vn 0.843391 0 0.5373 
vn 0.866025 0 0.5 
vn 0.819152 0 0.573576 
vn 0.843391 0 0.5373 
vn 0.793353 0 0.608761 
vn 0.819152 0 0.573576 
vn 0.766044 0 0.642788 
vn 0.793353 0 0.608761 
vn 0.737277 0 0.67559 
vn 0.766044 0 0.642788 
vn 0.707107 0 0.707107 
vn 0.737277 0 0.67559 
vn 0.67559 0 0.737277 
vn 0.707107 0 0.707107 
vn 0.642788 0 0.766044 
vn 0.67559 0 0.737277 
vn 0.608761 0 0.793353 
vn 0.642788 0 0.766044 
vn 0.573576 0 0.819152 
vn 0.608761 0 0.793353 
vn 0.5373 0 0.843391 
vn 0.573576 0 0.819152 
vn 0.5 0 0.866025 
vn 0.5373 0 0.843391 
vn 0.461749 0 0.887011 
vn 0.5 0 0.866025 
vn 0.422618 0 0.906308 
vn 0.461749 0 0.887011 
vn 0.382683 0 0.92388 
vn 0.422618 0 0.906308 
vn 0.34202 0 0.939693 
vn 0.382683 0 0.92388 
vn 0.300706 0 0.953717 
vn 0.34202 0 0.939693 
vn 0.258819 0 0.965926 
vn 0.300706 0 0.953717 
vn 0.21644 0 0.976296 
vn 0.258819 0 0.965926 
vn 0.173648 0 0.984808 
vn 0.21644 0 0.976296 
vn 0.130526 0 0.991445 
vn 0.173648 0 0.984808 
vn 0.0871557 0 0.996195 
vn 0.130526 0 0.991445 
vn 0.0436194 0 0.999048 
vn 0.0871557 0 0.996195 
vn -1.22465e-16 0 1 
vn 0.0436194 0 0.999048 
vn -0.0436194 0 0.999048 
vn -1.22465e-16 0 1 
vn -0.0871557 0 0.996195 
vn -0.0436194 0 0.999048 
vn -0.130526 0 0.991445 
vn -0.0871557 0 0.996195 
vn -0.173648 0 0.984808 
vn -0.130526 0 0.991445 
vn -0.21644 0 0.976296 
vn -0.173648 0 0.984808 
vn -0.258819 0 0.965926 
vn -0.21644 0 0.976296 
vn -0.300706 0 0.953717 
vn -0.258819 0 0.965926 
vn -0.34202 0 0.939693 
vn -0.300706 0 0.953717 
vn -0.382683 0 0.92388 
vn -0.34202 0 0.939693 
vn -0.422618 0 0.906308 
vn -0.382683 0 0.92388 
vn -0.461749 0 0.887011 
vn -0.422618 0 0.906308 
vn -0.5 0 0.866025 
vn -0.461749 0 0.887011 
vn -0.5373 0 0.843391 
vn -0.5 0 0.866025 
vn -0.573576 0 0.819152 
vn -0.5373 0 0.843391 
vn -0.608761 0 0.793353 
vn -0.573576 0 0.819152 
vn -0.642788 0 0.766044 
vn -0.608761 0 0.793353 
vn -0.67559 0 0.737277 
vn -0.642788 0 0.766044 
vn -0.707107 0 0.707107 
vn -0.67559 0 0.737277 
vn -0.737277 0 0.67559 
vn -0.707107 0 0.707107 
vn -0.766044 0 0.642788 
vn -0.737277 0 0.67559 
vn -0.793353 0 0.608761 
vn -0.766044 0 0.642788 
vn -0.819152 0 0.573576 
vn -0.793353 0 0.608761 
vn -0.843391 0 0.5373 
vn -0.819152 0 0.573576 
vn -0.866025 0 0.5 
vn -0.843391 0 0.5373 
vn -0.887011 0 0.461749 
vn -0.866025 0 0.5 
vn -0.906308 0 0.422618 
vn -0.887011 0 0.461749 
vn -0.92388 0 0.382683 
vn -0.906308 0 0.422618 
vn -0.939693 0 0.34202 
vn -0.92388 0 0.382683 
vn -0.953717 0 0.300706 
vn -0.939693 0 0.34202 
vn -0.965926 0 0.258819 
vn -0.953717 0 0.300706 
vn -0.976296 0 0.21644 
vn -0.965926 0 0.258819 
vn -0.984808 0 0.173648 
vn -0.976296 0 0.21644 
vn -0.991445 0 0.130526 
vn -0.984808 0 0.173648 
vn -0.996195 0 0.0871557 
vn -0.991445 0 0.130526 
vn -0.999048 0 0.0436194 
vn -0.996195 0 0.0871557 
vn -1 0 -6.12323e-17 
vn -0.999048 0 0.0436194 
vn -0.999048 0 -0.0436194 
vn -1 0 -6.12323e-17 
vn -0.996195 0 -0.0871557 
vn -0.999048 0 -0.0436194 
vn -0.991445 0 -0.130526 
vn -0.996195 0 -0.0871557 
vn -0.984808 0 -0.173648 
vn -0.991445 0 -0.130526 
vn -0.976296 0 -0.21644 
vn -0.984808 0 -0.173648 
vn -0.965926 0 -0.258819 
vn -0.976296 0 -0.21644 
vn -0.953717 0 -0.300706 
vn -0.965926 0 -0.258819 
vn -0.939693 0 -0.34202 
vn -0.953717 0 -0.300706 
vn -0.92388 0 -0.382683 
vn -0.939693 0 -0.34202 
vn -0.906308 0 -0.422618 
vn -0.92388 0 -0.382683 
vn -0.887011 0 -0.461749 
vn -0.906308 0 -0.422618 
vn -0.866025 0 -0.5 
vn -0.887011 0 -0.461749 
vn -0.843391 0 -0.5373 
vn -0.866025 0 -0.5 
vn -0.819152 0 -0.573576 
vn -0.843391 0 -0.5373 
vn -0.793353 0 -0.608761 
vn -0.819152 0 -0.573576 
vn -0.766044 0 -0.642788 
vn -0.793353 0 -0.608761 
vn -0.737277 0 -0.67559 
vn -0.766044 0 -0.642788 
vn -0.707107 0 -0.707107 
vn -0.737277 0 -0.67559 
vn -0.67559 0 -0.737277 
vn -0.707107 0 -0.707107 
vn -0.642788 0 -0.766044 
vn -0.67559 0 -0.737277 
vn -0.608761 0 -0.793353 
vn -0.642788 0 -0.766044 
vn -0.573576 0 -0.819152 
vn -0.608761 0 -0.793353 
vn -0.5373 0 -0.843391 
vn -0.573576 0 -0.819152 
vn -0.5 0 -0.866025 
vn -0.5373 0 -0.843391 
vn -0.461749 0 -0.887011 
vn -0.5 0 -0.866025 
vn -0.422618 0 -0.906308 
vn -0.461749 0 -0.887011 
vn -0.382683 0 -0.92388 
vn -0.422618 0 -0.906308 
vn -0.34202 0 -0.939693 
vn -0.382683 0 -0.92388 
vn -0.300706 0 -0.953717 
vn -0.34202 0 -0.939693 
vn -0.258819 0 -0.965926 
vn -0.300706 0 -0.953717 
vn -0.21644 0 -0.976296 
vn -0.258819 0 -0.965926 
vn -0.173648 0 -0.984808 
vn -0.21644 0 -0.976296 
vn -0.130526 0 -0.991445 
vn -0.173648 0 -0.984808 
vn -0.0871557 0 -0.996195 
vn -0.130526 0 -0.991445 
vn -0.0436194 0 -0.999048 
vn -0.0871557 0 -0.996195 
vn 0 1 0 
usemtl 0.615686_0.811765_0.929412_0.000000_0.000000
o mesh3
f 244//1 245//1 246//2 
f 247//2 246//2 248//3 
f 249//3 248//3 250//4 
f 251//4 250//4 252//5 
f 253//5 252//5 254//6 
f 255//6 254//6 256//7 
f 257//7 256//7 258//8 
f 259//8 258//8 260//9 
f 261//9 260//9 262//10 
f 263//10 262//10 264//11 
f 265//11 264//11 266//12 
f 267//12 266//12 268//13 
f 269//13 268//13 270//14 
f 271//14 270//14 272//15 
f 273//15 272//15 274//16 
f 275//16 274//16 276//17 
f 277//17 276//17 278//18 
f 279//18 278//18 280//19 
f 281//19 280//19 282//20 
f 283//20 282//20 284//21 
f 285//21 284//21 286//22 
f 287//22 286//22 288//23 
f 289//23 288//23 290//24 
f 291//24 290//24 292//25 
f 293//25 292//25 294//26 
f 295//26 294//26 296//27 
f 297//27 296//27 298//28 
f 299//28 298//28 300//29 
f 301//29 300//29 302//30 
f 303//30 302//30 304//31 
f 305//31 304//31 306//32 
f 307//32 306//32 308//33 
f 309//33 308//33 310//34 
f 311//34 310//34 312//35 
f 313//35 312//35 314//36 
f 315//36 314//36 316//37 
f 317//37 316//37 318//38 
f 319//38 318//38 320//39 
f 321//39 320//39 322//40 
f 323//40 322//40 324//41 
f 325//41 324//41 326//42 
f 327//42 326//42 328//43 
f 329//43 328//43 330//44 
f 331//44 330//44 332//45 
f 333//45 332//45 334//46 
f 335//46 334//46 336//47 
f 337//47 336//47 338//48 
f 339//48 338//48 340//49 
f 341//49 340//49 342//50 
f 343//50 342//50 344//51 
f 345//51 344//51 346//52 
f 347//52 346//52 348//53 
f 349//53 348//53 350//54 
f 351//54 350//54 352//55 
f 353//55 352//55 354//56 
f 355//56 354//56 356//57 
f 357//57 356//57 358//58 
f 359//58 358//58 360//59 
f 361//59 360//59 362//60 
f 363//60 362//60 364//61 
f 365//61 364//61 366//62 
f 367//62 366//62 368//63 
f 369//63 368//63 370//64 
f 371//64 370//64 372//65 
f 373//65 372//65 374//66 
f 375//66 374//66 376//67 
f 377//67 376//67 378//68 
f 379//68 378//68 380//69 
f 381//69 380//69 382//70 
f 383//70 382//70 384//71 
f 385//71 384//71 386//72 
f 387//72 386//72 388//73 
f 389//73 388//73 390//74 
f 391//74 390//74 392//75 
f 393//75 392//75 394//76 
f 395//76 394//76 396//77 
f 397//77 396//77 398//78 
f 399//78 398//78 400//79 
f 401//79 400//79 402//80 
f 403//80 402//80 404//81 
f 405//81 404//81 406//82 
f 407//82 406//82 408//83 
f 409//83 408//83 410//84 
f 411//84 410//84 412//85 
f 413//85 412//85 414//86 
f 415//86 414//86 416//87 
f 417//87 416//87 418//88 
f 419//88 418//88 420//89 
f 421//89 420//89 422//90 
f 423//90 422//90 424//91 
f 425//91 424//91 426//92 
f 427//92 426//92 428//93 
f 429//93 428//93 430//94 
f 431//94 430//94 432//95 
f 433//95 432//95 434//96 
f 435//96 434//96 436//97 
f 437//97 436//97 438//98 
f 439//98 438//98 440//99 
f 441//99 440//99 442//100 
f 443//100 442//100 444//101 
f 445//101 444//101 446//102 
f 447//102 446//102 448//103 
f 449//103 448//103 450//104 
f 451//104 450//104 452//105 
f 453//105 452//105 454//106 
f 455//106 454//106 456//107 
f 457//107 456//107 458//108 
f 459//108 458//108 460//109 
f 461//109 460//109 462//110 
f 463//110 462//110 464//111 
f 465//111 464//111 466//112 
f 467//112 466//112 468//113 
f 469//113 468//113 470//114 
f 471//114 470//114 472//115 
f 473//115 472//115 474//116 
f 475//116 474//116 476//117 
f 477//117 476//117 478//118 
f 479//118 478//118 480//119 
f 481//119 480//119 482//120 
f 483//120 482//120 484//121 
f 485//121 484//121 486//122 
f 487//122 486//122 488//123 
f 489//123 488//123 490//124 
f 491//124 490//124 492//125 
f 493//125 492//125 494//126 
f 495//126 494//126 496//127 
f 497//127 496//127 498//128 
f 499//128 498//128 500//129 
f 501//129 500//129 502//130 
f 503//130 502//130 504//131 
f 505//131 504//131 506//132 
f 507//132 506//132 508//133 
f 509//133 508//133 510//134 
f 511//134 510//134 512//135 
f 513//135 512//135 514//136 
f 515//136 514//136 516//137 
f 517//137 516//137 518//138 
f 519//138 518//138 520//139 
f 521//139 520//139 522//140 
f 523//140 522//140 524//141 
f 525//141 524//141 526//142 
f 527//142 526//142 528//143 
f 529//143 528//143 530//144 
f 531//144 530//144 245//1 
f 245//1 244//1 531//144 
f 530//144 531//144 529//143 
f 528//143 529//143 527//142 
f 526//142 527//142 525//141 
f 524//141 525//141 523//140 
f 522//140 523//140 521//139 
f 520//139 521//139 519//138 
f 518//138 519//138 517//137 
f 516//137 517//137 515//136 
f 514//136 515//136 513//135 
f 512//135 513//135 511//134 
f 510//134 511//134 509//133 
f 508//133 509//133 507//132 
f 506//132 507//132 505//131 
f 504//131 505//131 503//130 
f 502//130 503//130 501//129 
f 500//129 501//129 499//128 
f 498//128 499//128 497//127 
f 496//127 497//127 495//126 
f 494//126 495//126 493//125 
f 492//125 493//125 491//124 
f 490//124 491//124 489//123 
f 488//123 489//123 487//122 
f 486//122 487//122 485//121 
f 484//121 485//121 483//120 
f 482//120 483//120 481//119 
f 480//119 481//119 479//118 
f 478//118 479//118 477//117 
f 476//117 477//117 475//116 
f 474//116 475//116 473//115 
f 472//115 473//115 471//114 
f 470//114 471//114 469//113 
f 468//113 469//113 467//112 
f 466//112 467//112 465//111 
f 464//111 465//111 463//110 
f 462//110 463//110 461//109 
f 460//109 461//109 459//108 
f 458//108 459//108 457//107 
f 456//107 457//107 455//106 
f 454//106 455//106 453//105 
f 452//105 453//105 451//104 
f 450//104 451//104 449//103 
f 448//103 449//103 447//102 
f 446//102 447//102 445//101 
f 444//101 445//101 443//100 
f 442//100 443//100 441//99 
f 440//99 441//99 439//98 
f 438//98 439//98 437//97 
f 436//97 437//97 435//96 
f 434//96 435//96 433//95 
f 432//95 433//95 431//94 
f 430//94 431//94 429//93 
f 428//93 429//93 427//92 
f 426//92 427//92 425//91 
f 424//91 425//91 423//90 
f 422//90 423//90 421//89 
f 420//89 421//89 419//88 
f 418//88 419//88 417//87 
f 416//87 417//87 415//86 
f 414//86 415//86 413//85 
f 412//85 413//85 411//84 
f 410//84 411//84 409//83 
f 408//83 409//83 407//82 
f 406//82 407//82 405//81 
f 404//81 405//81 403//80 
f 402//80 403//80 401//79 
f 400//79 401//79 399//78 
f 398//78 399//78 397//77 
f 396//77 397//77 395//76 
f 394//76 395//76 393//75 
f 392//75 393//75 391//74 
f 390//74 391//74 389//73 
f 388//73 389//73 387//72 
f 386//72 387//72 385//71 
f 384//71 385//71 383//70 
f 382//70 383//70 381//69 
f 380//69 381//69 379//68 
f 378//68 379//68 377//67 
f 376//67 377//67 375//66 
f 374//66 375//66 373//65 
f 372//65 373//65 371//64 
f 370//64 371//64 369//63 
f 368//63 369//63 367//62 
f 366//62 367//62 365//61 
f 364//61 365//61 363//60 
f 362//60 363//60 361//59 
f 360//59 361//59 359//58 
f 358//58 359//58 357//57 
f 356//57 357//57 355//56 
f 354//56 355//56 353//55 
f 352//55 353//55 351//54 
f 350//54 351//54 349//53 
f 348//53 349//53 347//52 
f 346//52 347//52 345//51 
f 344//51 345//51 343//50 
f 342//50 343//50 341//49 
f 340//49 341//49 339//48 
f 338//48 339//48 337//47 
f 336//47 337//47 335//46 
f 334//46 335//46 333//45 
f 332//45 333//45 331//44 
f 330//44 331//44 329//43 
f 328//43 329//43 327//42 
f 326//42 327//42 325//41 
f 324//41 325//41 323//40 
f 322//40 323//40 321//39 
f 320//39 321//39 319//38 
f 318//38 319//38 317//37 
f 316//37 317//37 315//36 
f 314//36 315//36 313//35 
f 312//35 313//35 311//34 
f 310//34 311//34 309//33 
f 308//33 309//33 307//32 
f 306//32 307//32 305//31 
f 304//31 305//31 303//30 
f 302//30 303//30 301//29 
f 300//29 301//29 299//28 
f 298//28 299//28 297//27 
f 296//27 297//27 295//26 
f 294//26 295//26 293//25 
f 292//25 293//25 291//24 
f 290//24 291//24 289//23 
f 288//23 289//23 287//22 
f 286//22 287//22 285//21 
f 284//21 285//21 283//20 
f 282//20 283//20 281//19 
f 280//19 281//19 279//18 
f 278//18 279//18 277//17 
f 276//17 277//17 275//16 
f 274//16 275//16 273//15 
f 272//15 273//15 271//14 
f 270//14 271//14 269//13 
f 268//13 269//13 267//12 
f 266//12 267//12 265//11 
f 264//11 265//11 263//10 
f 262//10 263//10 261//9 
f 260//9 261//9 259//8 
f 258//8 259//8 257//7 
f 256//7 257//7 255//6 
f 254//6 255//6 253//5 
f 252//5 253//5 251//4 
f 250//4 251//4 249//3 
f 248//3 249//3 247//2 
f 246//2 247//2 244//1 
o mesh4
f 476//145 532//145 533//145 
f 474//145 534//145 532//145 
f 342//145 535//145 536//145 
f 342//145 340//145 537//145 
f 316//145 538//145 539//145 
f 316//145 314//145 540//145 
f 304//145 541//145 542//145 
f 304//145 302//145 543//145 
f 300//145 298//145 544//145 
f 298//145 296//145 545//145 
f 256//145 546//145 547//145 
f 256//145 254//145 548//145 
f 514//145 549//145 550//145 
f 514//145 512//145 551//145 
f 478//145 533//145 552//145 
f 532//145 476//145 474//145 
f 537//145 535//145 342//145 
f 340//145 338//145 553//145 
f 334//145 554//145 555//145 
f 334//145 332//145 556//145 
f 328//145 557//145 558//145 
f 328//145 326//145 559//145 
f 318//145 539//145 560//145 
f 540//145 538//145 316//145 
f 310//145 561//145 562//145 
f 310//145 308//145 563//145 
f 306//145 542//145 563//145 
f 543//145 541//145 304//145 
f 300//145 564//145 543//145 
f 545//145 544//145 298//145 
f 294//145 565//145 545//145 
f 294//145 292//145 566//145 
f 548//145 546//145 256//145 
f 254//145 252//145 567//145 
f 250//145 568//145 567//145 
f 250//145 248//145 569//145 
f 246//145 570//145 569//145 
f 245//145 571//145 570//145 
f 530//145 572//145 571//145 
f 530//145 528//145 573//145 
f 516//145 550//145 574//145 
f 551//145 549//145 514//145 
f 533//145 478//145 476//145 
f 474//145 472//145 575//145 
f 553//145 537//145 340//145 
f 338//145 336//145 555//145 
f 556//145 554//145 334//145 
f 332//145 330//145 558//145 
f 559//145 557//145 328//145 
f 326//145 324//145 576//145 
f 324//145 322//145 577//145 
f 322//145 320//145 560//145 
f 539//145 318//145 316//145 
f 314//145 312//145 562//145 
f 563//145 561//145 310//145 
f 542//145 306//145 304//145 
f 544//145 564//145 300//145 
f 566//145 565//145 294//145 
f 292//145 290//145 578//145 
f 290//145 288//145 579//145 
f 262//145 260//145 580//145 
f 260//145 258//145 547//145 
f 567//145 548//145 254//145 
f 569//145 568//145 250//145 
f 570//145 246//145 245//145 
f 573//145 572//145 530//145 
f 550//145 516//145 514//145 
f 512//145 510//145 581//145 
f 508//145 582//145 581//145 
f 508//145 506//145 583//145 
f 575//145 534//145 474//145 
f 472//145 470//145 584//145 
f 555//145 553//145 338//145 
f 558//145 556//145 332//145 
f 576//145 559//145 326//145 
f 560//145 577//145 322//145 
f 562//145 540//145 314//145 
f 563//145 308//145 306//145 
f 545//145 296//145 294//145 
f 579//145 578//145 290//145 
f 276//145 274//145 585//145 
f 274//145 272//145 586//145 
f 266//145 587//145 588//145 
f 266//145 264//145 589//145 
f 262//145 590//145 589//145 
f 547//145 580//145 260//145 
f 567//145 252//145 250//145 
f 571//145 245//145 530//145 
f 526//145 591//145 573//145 
f 526//145 524//145 592//145 
f 518//145 574//145 593//145 
f 581//145 551//145 512//145 
f 583//145 582//145 508//145 
f 506//145 504//145 594//145 
f 502//145 595//145 594//145 
f 502//145 500//145 596//145 
f 584//145 575//145 472//145 
f 470//145 468//145 597//145 
f 464//145 598//145 599//145 
f 462//145 600//145 598//145 
f 374//145 601//145 602//145 
f 374//145 372//145 603//145 
f 555//145 336//145 334//145 
f 577//145 576//145 324//145 
f 562//145 312//145 310//145 
f 578//145 566//145 292//145 
f 286//145 604//145 579//145 
f 286//145 284//145 605//145 
f 280//145 606//145 607//145 
f 280//145 278//145 608//145 
f 278//145 276//145 609//145 
f 586//145 585//145 274//145 
f 270//145 610//145 586//145 
f 270//145 268//145 588//145 
f 589//145 587//145 266//145 
f 580//145 590//145 262//145 
f 569//145 248//145 246//145 
f 592//145 591//145 526//145 
f 522//145 611//145 592//145 
f 522//145 520//145 593//145 
f 574//145 518//145 516//145 
f 594//145 583//145 506//145 
f 596//145 595//145 502//145 
f 500//145 498//145 612//145 
f 597//145 584//145 470//145 
f 468//145 466//145 599//145 
f 598//145 464//145 462//145 
f 460//145 613//145 600//145 
f 450//145 614//145 615//145 
f 450//145 448//145 616//145 
f 446//145 617//145 616//145 
f 446//145 444//145 618//145 
f 442//145 619//145 618//145 
f 442//145 440//145 620//145 
f 436//145 621//145 622//145 
f 434//145 623//145 621//145 
f 603//145 601//145 374//145 
f 370//145 624//145 603//145 
f 368//145 625//145 624//145 
f 368//145 366//145 626//145 
f 558//145 330//145 328//145 
f 543//145 302//145 300//145 
f 605//145 604//145 286//145 
f 284//145 282//145 607//145 
f 608//145 606//145 280//145 
f 585//145 609//145 276//145 
f 588//145 610//145 270//145 
f 589//145 264//145 262//145 
f 573//145 528//145 526//145 
f 593//145 611//145 522//145 
f 581//145 510//145 508//145 
f 612//145 596//145 500//145 
f 599//145 597//145 468//145 
f 600//145 462//145 460//145 
f 458//145 627//145 613//145 
f 458//145 456//145 628//145 
f 454//145 629//145 628//145 
f 454//145 452//145 615//145 
f 616//145 614//145 450//145 
f 618//145 617//145 446//145 
f 620//145 619//145 442//145 
f 440//145 438//145 622//145 
f 621//145 436//145 434//145 
f 432//145 630//145 623//145 
f 603//145 372//145 370//145 
f 626//145 625//145 368//145 
f 560//145 320//145 318//145 
f 607//145 605//145 284//145 
f 609//145 608//145 278//145 
f 588//145 268//145 266//145 
f 592//145 524//145 522//145 
f 594//145 504//145 502//145 
f 496//145 631//145 612//145 
f 496//145 494//145 632//145 
f 490//145 633//145 634//145 
f 490//145 488//145 635//145 
f 486//145 636//145 635//145 
f 484//145 637//145 636//145 
f 482//145 638//145 637//145 
f 482//145 480//145 552//145 
f 599//145 466//145 464//145 
f 628//145 627//145 458//145 
f 615//145 629//145 454//145 
f 616//145 448//145 446//145 
f 622//145 620//145 440//145 
f 623//145 434//145 432//145 
f 430//145 639//145 630//145 
f 430//145 428//145 640//145 
f 426//145 641//145 640//145 
f 424//145 642//145 641//145 
f 420//145 643//145 644//145 
f 420//145 418//145 645//145 
f 416//145 646//145 645//145 
f 416//145 414//145 647//145 
f 388//145 386//145 648//145 
f 386//145 384//145 649//145 
f 382//145 650//145 649//145 
f 382//145 380//145 651//145 
f 378//145 652//145 651//145 
f 378//145 376//145 602//145 
f 624//145 370//145 368//145 
f 366//145 364//145 653//145 
f 362//145 654//145 653//145 
f 362//145 360//145 655//145 
f 579//145 288//145 286//145 
f 586//145 272//145 270//145 
f 593//145 520//145 518//145 
f 632//145 631//145 496//145 
f 492//145 634//145 632//145 
f 635//145 633//145 490//145 
f 636//145 486//145 484//145 
f 552//145 638//145 482//145 
f 613//145 460//145 458//145 
f 615//145 452//145 450//145 
f 622//145 438//145 436//145 
f 640//145 639//145 430//145 
f 641//145 426//145 424//145 
f 424//145 422//145 644//145 
f 645//145 643//145 420//145 
f 647//145 646//145 416//145 
f 404//145 656//145 657//145 
f 404//145 402//145 658//145 
f 649//145 648//145 386//145 
f 651//145 650//145 382//145 
f 602//145 652//145 378//145 
f 653//145 626//145 366//145 
f 655//145 654//145 362//145 
f 360//145 358//145 659//145 
f 356//145 660//145 659//145 
f 356//145 354//145 661//145 
f 607//145 282//145 280//145 
f 612//145 498//145 496//145 
f 634//145 492//145 490//145 
f 637//145 484//145 482//145 
f 628//145 456//145 454//145 
f 630//145 432//145 430//145 
f 644//145 642//145 424//145 
f 645//145 418//145 416//145 
f 406//145 657//145 662//145 
f 658//145 656//145 404//145 
f 394//145 663//145 664//145 
f 394//145 392//145 665//145 
f 649//145 384//145 382//145 
f 602//145 376//145 374//145 
f 659//145 655//145 360//145 
f 661//145 660//145 356//145 
f 547//145 258//145 256//145 
f 635//145 488//145 486//145 
f 618//145 444//145 442//145 
f 644//145 422//145 420//145 
f 410//145 666//145 667//145 
f 410//145 408//145 662//145 
f 657//145 406//145 404//145 
f 402//145 400//145 668//145 
f 400//145 398//145 669//145 
f 398//145 396//145 664//145 
f 665//145 663//145 394//145 
f 390//145 670//145 665//145 
f 651//145 380//145 378//145 
f 659//145 358//145 356//145 
f 352//145 671//145 661//145 
f 352//145 350//145 672//145 
f 348//145 673//145 672//145 
f 348//145 346//145 674//145 
f 632//145 494//145 492//145 
f 640//145 428//145 426//145 
f 412//145 667//145 647//145 
f 662//145 666//145 410//145 
f 668//145 658//145 402//145 
f 664//145 669//145 398//145 
f 665//145 392//145 390//145 
f 388//145 675//145 670//145 
f 653//145 364//145 362//145 
f 672//145 671//145 352//145 
f 674//145 673//145 348//145 
f 346//145 344//145 536//145 
f 552//145 480//145 478//145 
f 667//145 412//145 410//145 
f 669//145 668//145 400//145 
f 670//145 390//145 388//145 
f 661//145 354//145 352//145 
f 536//145 674//145 346//145 
f 647//145 414//145 412//145 
f 664//145 396//145 394//145 
f 672//145 350//145 348//145 
f 662//145 408//145 406//145 
f 536//145 344//145 342//145 
f 648//145 675//145 388//145 
o mesh5
f 676//146 677//147 571//147 
f 678//148 676//146 572//149 
f 679//150 678//148 573//151 
f 680//152 679//150 591//153 
f 681//154 680//152 592//155 
f 682//156 681//154 611//157 
f 683//158 682//156 593//159 
f 684//160 683//158 574//161 
f 685//162 684//160 550//163 
f 686//164 685//162 549//165 
f 687//166 686//164 551//167 
f 688//168 687//166 581//169 
f 689//170 688//168 582//171 
f 690//172 689//170 583//173 
f 691//174 690//172 594//175 
f 692//176 691//174 595//177 
f 693//178 692//176 596//179 
f 694//180 693//178 612//181 
f 695//182 694//180 631//183 
f 696//184 695//182 632//185 
f 697//186 696//184 634//187 
f 698//188 697//186 633//189 
f 699//190 698//188 635//191 
f 700//192 699//190 636//193 
f 701//194 700//192 637//195 
f 702//196 701//194 638//197 
f 703//198 702//196 552//199 
f 704//200 703//198 533//201 
f 705//202 704//200 532//203 
f 706//204 705//202 534//205 
f 707//206 706//204 575//207 
f 708//208 707//206 584//209 
f 709//210 708//208 597//211 
f 710//212 709//210 599//213 
f 711//214 710//212 598//215 
f 712//216 711//214 600//217 
f 713//218 712//216 613//219 
f 714//220 713//218 627//221 
f 715//222 714//220 628//223 
f 716//224 715//222 629//225 
f 717//226 716//224 615//227 
f 718//228 717//226 614//229 
f 719//230 718//228 616//231 
f 720//232 719//230 617//233 
f 721//234 720//232 618//235 
f 722//236 721//234 619//237 
f 723//238 722//236 620//239 
f 724//240 723//238 622//241 
f 725//242 724//240 621//243 
f 726//244 725//242 623//245 
f 727//246 726//244 630//247 
f 728//248 727//246 639//249 
f 729//250 728//248 640//251 
f 730//252 729//250 641//253 
f 731//254 730//252 642//255 
f 732//256 731//254 644//257 
f 733//258 732//256 643//259 
f 734//260 733//258 645//261 
f 735//262 734//260 646//263 
f 736//264 735//262 647//265 
f 737//266 736//264 667//267 
f 738//268 737//266 666//269 
f 739//270 738//268 662//271 
f 740//272 739//270 657//273 
f 741//274 740//272 656//275 
f 742//276 741//274 658//277 
f 743//278 742//276 668//279 
f 744//280 743//278 669//281 
f 745//282 744//280 664//283 
f 746//284 745//282 663//285 
f 747//286 746//284 665//287 
f 748//288 747//286 670//289 
f 749//290 748//288 675//291 
f 750//292 749//290 648//293 
f 751//294 750//292 649//295 
f 752//296 751//294 650//297 
f 753//298 752//296 651//299 
f 754//300 753//298 652//301 
f 755//302 754//300 602//303 
f 756//304 755//302 601//305 
f 757//306 756//304 603//307 
f 758//308 757//306 624//309 
f 759//310 758//308 625//311 
f 760//312 759//310 626//313 
f 761//314 760//312 653//315 
f 762//316 761//314 654//317 
f 763//318 762//316 655//319 
f 764//320 763//318 659//321 
f 765//322 764//320 660//323 
f 766//324 765//322 661//325 
f 767//326 766//324 671//327 
f 768//328 767//326 672//329 
f 769//330 768//328 673//331 
f 770//332 769//330 674//333 
f 771//334 770//332 536//335 
f 772//336 771//334 535//337 
f 773//338 772//336 537//339 
f 774//340 773//338 553//341 
f 775//342 774//340 555//343 
f 776//344 775//342 554//345 
f 777//346 776//344 556//347 
f 778//348 777//346 558//349 
f 779//350 778//348 557//351 
f 780//352 779//350 559//353 
f 781//354 780//352 576//355 
f 782//356 781//354 577//357 
f 783//358 782//356 560//359 
f 784//360 783//358 539//361 
f 785//362 784//360 538//363 
f 786//364 785//362 540//365 
f 787//366 786//364 562//367 
f 788//368 787//366 561//369 
f 789//370 788//368 563//371 
f 790//372 789//370 542//373 
f 791//374 790//372 541//375 
f 792//376 791//374 543//377 
f 793//378 792//376 564//379 
f 794//380 793//378 544//381 
f 795//382 794//380 545//383 
f 796//384 795//382 565//385 
f 797//386 796//384 566//387 
f 798//388 797//386 578//389 
f 799//390 798//388 579//391 
f 800//392 799//390 604//393 
f 801//394 800//392 605//395 
f 802//396 801//394 607//397 
f 803//398 802//396 606//399 
f 804//400 803//398 608//401 
f 805//402 804//400 609//403 
f 806//404 805//402 585//405 
f 807//406 806//404 586//407 
f 808//408 807//406 610//409 
f 809//410 808//408 588//411 
f 810//412 809//410 587//413 
f 811//414 810//412 589//415 
f 812//416 811//414 590//417 
f 813//418 812//416 580//419 
f 814//420 813//418 547//421 
f 815//422 814//420 546//423 
f 816//424 815//422 548//425 
f 817//426 816//424 567//427 
f 818//428 817//426 568//429 
f 819//430 818//428 569//431 
f 677//147 819//430 570//430 
f 570//430 571//147 677//147 
f 569//431 570//430 819//430 
f 568//429 569//431 818//428 
f 567//427 568//429 817//426 
f 548//425 567//427 816//424 
f 546//423 548//425 815//422 
f 547//421 546//423 814//420 
f 580//419 547//421 813//418 
f 590//417 580//419 812//416 
f 589//415 590//417 811//414 
f 587//413 589//415 810//412 
f 588//411 587//413 809//410 
f 610//409 588//411 808//408 
f 586//407 610//409 807//406 
f 585//405 586//407 806//404 
f 609//403 585//405 805//402 
f 608//401 609//403 804//400 
f 606//399 608//401 803//398 
f 607//397 606//399 802//396 
f 605//395 607//397 801//394 
f 604//393 605//395 800//392 
f 579//391 604//393 799//390 
f 578//389 579//391 798//388 
f 566//387 578//389 797//386 
f 565//385 566//387 796//384 
f 545//383 565//385 795//382 
f 544//381 545//383 794//380 
f 564//379 544//381 793//378 
f 543//377 564//379 792//376 
f 541//375 543//377 791//374 
f 542//373 541//375 790//372 
f 563//371 542//373 789//370 
f 561//369 563//371 788//368 
f 562//367 561//369 787//366 
f 540//365 562//367 786//364 
f 538//363 540//365 785//362 
f 539//361 538//363 784//360 
f 560//359 539//361 783//358 
f 577//357 560//359 782//356 
f 576//355 577//357 781//354 
f 559//353 576//355 780//352 
f 557//351 559//353 779//350 
f 558//349 557//351 778//348 
f 556//347 558//349 777//346 
f 554//345 556//347 776//344 
f 555//343 554//345 775//342 
f 553//341 555//343 774//340 
f 537//339 553//341 773//338 
f 535//337 537//339 772//336 
f 536//335 535//337 771//334 
f 674//333 536//335 770//332 
f 673//331 674//333 769//330 
f 672//329 673//331 768//328 
f 671//327 672//329 767//326 
f 661//325 671//327 766//324 
f 660//323 661//325 765//322 
f 659//321 660//323 764//320 
f 655//319 659//321 763//318 
f 654//317 655//319 762//316 
f 653//315 654//317 761//314 
f 626//313 653//315 760//312 
f 625//311 626//313 759//310 
f 624//309 625//311 758//308 
f 603//307 624//309 757//306 
f 601//305 603//307 756//304 
f 602//303 601//305 755//302 
f 652//301 602//303 754//300 
f 651//299 652//301 753//298 
f 650//297 651//299 752//296 
f 649//295 650//297 751//294 
f 648//293 649//295 750//292 
f 675//291 648//293 749//290 
f 670//289 675//291 748//288 
f 665//287 670//289 747//286 
f 663//285 665//287 746//284 
f 664//283 663//285 745//282 
f 669//281 664//283 744//280 
f 668//279 669//281 743//278 
f 658//277 668//279 742//276 
f 656//275 658//277 741//274 
f 657//273 656//275 740//272 
f 662//271 657//273 739//270 
f 666//269 662//271 738//268 
f 667//267 666//269 737//266 
f 647//265 667//267 736//264 
f 646//263 647//265 735//262 
f 645//261 646//263 734//260 
f 643//259 645//261 733//258 
f 644//257 643//259 732//256 
f 642//255 644//257 731//254 
f 641//253 642//255 730//252 
f 640//251 641//253 729//250 
f 639//249 640//251 728//248 
f 630//247 639//249 727//246 
f 623//245 630//247 726//244 
f 621//243 623//245 725//242 
f 622//241 621//243 724//240 
f 620//239 622//241 723//238 
f 619//237 620//239 722//236 
f 618//235 619//237 721//234 
f 617//233 618//235 720//232 
f 616//231 617//233 719//230 
f 614//229 616//231 718//228 
f 615//227 614//229 717//226 
f 629//225 615//227 716//224 
f 628//223 629//225 715//222 
f 627//221 628//223 714//220 
f 613//219 627//221 713//218 
f 600//217 613//219 712//216 
f 598//215 600//217 711//214 
f 599//213 598//215 710//212 
f 597//211 599//213 709//210 
f 584//209 597//211 708//208 
f 575//207 584//209 707//206 
f 534//205 575//207 706//204 
f 532//203 534//205 705//202 
f 533//201 532//203 704//200 
f 552//199 533//201 703//198 
f 638//197 552//199 702//196 
f 637//195 638//197 701//194 
f 636//193 637//195 700//192 
f 635//191 636//193 699//190 
f 633//189 635//191 698//188 
f 634//187 633//189 697//186 
f 632//185 634//187 696//184 
f 631//183 632//185 695//182 
f 612//181 631//183 694//180 
f 596//179 612//181 693//178 
f 595//177 596//179 692//176 
f 594//175 595//177 691//174 
f 583//173 594//175 690//172 
f 582//171 583//173 689//170 
f 581//169 582//171 688//168 
f 551//167 581//169 687//166 
f 549//165 551//167 686//164 
f 550//163 549//165 685//162 
f 574//161 550//163 684//160 
f 593//159 574//161 683//158 
f 611//157 593//159 682//156 
f 592//155 611//157 681//154 
f 591//153 592//155 680//152 
f 573//151 591//153 679//150 
f 572//149 573//151 678//148 
f 571//147 572//149 676//146 
o mesh6
f 369//432 758//432 759//432 
f 369//432 371//432 757//432 
f 757//432 758//432 369//432 
f 371//432 373//432 756//432 
f 375//432 755//432 756//432 
f 375//432 377//432 754//432 
f 357//432 764//432 765//432 
f 357//432 359//432 763//432 
f 756//432 757//432 371//432 
f 754//432 755//432 375//432 
f 389//432 748//432 749//432 
f 389//432 391//432 747//432 
f 403//432 405//432 740//432 
f 405//432 407//432 739//432 
f 299//432 793//432 794//432 
f 299//432 301//432 792//432 
f 763//432 764//432 357//432 
f 361//432 762//432 763//432 
f 363//432 761//432 762//432 
f 363//432 365//432 760//432 
f 367//432 759//432 760//432 
f 756//432 373//432 375//432 
f 379//432 753//432 754//432 
f 379//432 381//432 752//432 
f 387//432 749//432 750//432 
f 747//432 748//432 389//432 
f 403//432 741//432 742//432 
f 739//432 740//432 405//432 
f 433//432 435//432 725//432 
f 435//432 437//432 724//432 
f 443//432 721//432 722//432 
f 443//432 445//432 720//432 
f 515//432 685//432 686//432 
f 515//432 517//432 684//432 
f 295//432 795//432 796//432 
f 295//432 297//432 794//432 
f 792//432 793//432 299//432 
f 301//432 303//432 791//432 
f 305//432 790//432 791//432 
f 305//432 307//432 789//432 
f 329//432 778//432 779//432 
f 329//432 331//432 777//432 
f 763//432 359//432 361//432 
f 760//432 761//432 363//432 
f 759//432 367//432 369//432 
f 752//432 753//432 379//432 
f 749//432 387//432 389//432 
f 391//432 393//432 746//432 
f 395//432 745//432 746//432 
f 395//432 397//432 744//432 
f 399//432 743//432 744//432 
f 401//432 742//432 743//432 
f 740//432 741//432 403//432 
f 407//432 409//432 738//432 
f 417//432 734//432 735//432 
f 417//432 419//432 733//432 
f 421//432 732//432 733//432 
f 421//432 423//432 731//432 
f 425//432 427//432 729//432 
f 427//432 429//432 728//432 
f 724//432 725//432 435//432 
f 437//432 439//432 723//432 
f 441//432 722//432 723//432 
f 720//432 721//432 443//432 
f 461//432 463//432 711//432 
f 463//432 465//432 710//432 
f 475//432 477//432 704//432 
f 477//432 479//432 703//432 
f 684//432 685//432 515//432 
f 517//432 519//432 683//432 
f 291//432 797//432 798//432 
f 291//432 293//432 796//432 
f 794//432 795//432 295//432 
f 791//432 792//432 301//432 
f 789//432 790//432 305//432 
f 307//432 309//432 788//432 
f 311//432 787//432 788//432 
f 311//432 313//432 786//432 
f 317//432 784//432 785//432 
f 317//432 319//432 783//432 
f 323//432 781//432 782//432 
f 325//432 780//432 781//432 
f 327//432 779//432 780//432 
f 777//432 778//432 329//432 
f 335//432 775//432 776//432 
f 335//432 337//432 774//432 
f 343//432 771//432 772//432 
f 343//432 345//432 770//432 
f 347//432 769//432 770//432 
f 349//432 768//432 769//432 
f 762//432 361//432 363//432 
f 754//432 377//432 379//432 
f 383//432 751//432 752//432 
f 383//432 385//432 750//432 
f 746//432 747//432 391//432 
f 744//432 745//432 395//432 
f 743//432 399//432 401//432 
f 738//432 739//432 407//432 
f 733//432 734//432 417//432 
f 731//432 732//432 421//432 
f 425//432 730//432 731//432 
f 728//432 729//432 427//432 
f 431//432 727//432 728//432 
f 431//432 433//432 726//432 
f 723//432 724//432 437//432 
f 722//432 441//432 443//432 
f 447//432 719//432 720//432 
f 447//432 449//432 718//432 
f 451//432 717//432 718//432 
f 451//432 453//432 716//432 
f 459//432 713//432 714//432 
f 459//432 461//432 712//432 
f 710//432 711//432 463//432 
f 465//432 467//432 709//432 
f 475//432 705//432 706//432 
f 703//432 704//432 477//432 
f 509//432 688//432 689//432 
f 509//432 511//432 687//432 
f 513//432 686//432 687//432 
f 683//432 684//432 517//432 
f 261//432 812//432 813//432 
f 263//432 811//432 812//432 
f 796//432 797//432 291//432 
f 794//432 297//432 299//432 
f 788//432 789//432 307//432 
f 786//432 787//432 311//432 
f 315//432 785//432 786//432 
f 783//432 784//432 317//432 
f 781//432 323//432 325//432 
f 779//432 327//432 329//432 
f 333//432 776//432 777//432 
f 774//432 775//432 335//432 
f 341//432 772//432 773//432 
f 770//432 771//432 343//432 
f 769//432 347//432 349//432 
f 349//432 351//432 767//432 
f 353//432 766//432 767//432 
f 353//432 355//432 765//432 
f 760//432 365//432 367//432 
f 750//432 751//432 383//432 
f 746//432 393//432 395//432 
f 742//432 401//432 403//432 
f 733//432 419//432 421//432 
f 729//432 730//432 425//432 
f 726//432 727//432 431//432 
f 723//432 439//432 441//432 
f 718//432 719//432 447//432 
f 716//432 717//432 451//432 
f 455//432 715//432 716//432 
f 455//432 457//432 714//432 
f 712//432 713//432 459//432 
f 709//432 710//432 465//432 
f 471//432 707//432 708//432 
f 473//432 706//432 707//432 
f 704//432 705//432 475//432 
f 479//432 481//432 702//432 
f 503//432 691//432 692//432 
f 503//432 505//432 690//432 
f 507//432 689//432 690//432 
f 687//432 688//432 509//432 
f 686//432 513//432 515//432 
f 519//432 521//432 682//432 
f 812//432 261//432 263//432 
f 263//432 265//432 810//432 
f 267//432 809//432 810//432 
f 267//432 269//432 808//432 
f 275//432 805//432 806//432 
f 277//432 804//432 805//432 
f 796//432 293//432 295//432 
f 788//432 309//432 311//432 
f 785//432 315//432 317//432 
f 319//432 321//432 782//432 
f 780//432 325//432 327//432 
f 776//432 333//432 335//432 
f 339//432 773//432 774//432 
f 772//432 341//432 343//432 
f 767//432 768//432 349//432 
f 765//432 766//432 353//432 
f 752//432 381//432 383//432 
f 744//432 397//432 399//432 
f 411//432 737//432 738//432 
f 411//432 413//432 736//432 
f 731//432 423//432 425//432 
f 725//432 726//432 433//432 
f 718//432 449//432 451//432 
f 714//432 715//432 455//432 
f 711//432 712//432 461//432 
f 467//432 469//432 708//432 
f 707//432 471//432 473//432 
f 702//432 703//432 479//432 
f 501//432 692//432 693//432 
f 690//432 691//432 503//432 
f 689//432 507//432 509//432 
f 682//432 683//432 519//432 
f 257//432 814//432 815//432 
f 257//432 259//432 813//432 
f 810//432 811//432 263//432 
f 808//432 809//432 267//432 
f 271//432 807//432 808//432 
f 271//432 273//432 806//432 
f 805//432 275//432 277//432 
f 279//432 803//432 804//432 
f 281//432 802//432 803//432 
f 281//432 283//432 801//432 
f 287//432 799//432 800//432 
f 287//432 289//432 798//432 
f 791//432 303//432 305//432 
f 782//432 783//432 319//432 
f 777//432 331//432 333//432 
f 773//432 339//432 341//432 
f 767//432 351//432 353//432 
f 750//432 385//432 387//432 
f 736//432 737//432 411//432 
f 413//432 415//432 735//432 
f 728//432 429//432 431//432 
f 716//432 453//432 455//432 
f 708//432 709//432 467//432 
f 706//432 473//432 475//432 
f 483//432 701//432 702//432 
f 483//432 485//432 700//432 
f 485//432 487//432 699//432 
f 487//432 489//432 698//432 
f 491//432 697//432 698//432 
f 491//432 493//432 696//432 
f 692//432 501//432 503//432 
f 687//432 511//432 513//432 
f 523//432 681//432 682//432 
f 523//432 525//432 680//432 
f 527//432 679//432 680//432 
f 527//432 529//432 678//432 
f 531//432 676//432 678//432 
f 531//432 244//432 677//432 
f 251//432 817//432 818//432 
f 251//432 253//432 816//432 
f 255//432 815//432 816//432 
f 813//432 814//432 257//432 
f 810//432 265//432 267//432 
f 806//432 807//432 271//432 
f 804//432 277//432 279//432 
f 801//432 802//432 281//432 
f 285//432 800//432 801//432 
f 798//432 799//432 287//432 
f 786//432 313//432 315//432 
f 774//432 337//432 339//432 
f 765//432 355//432 357//432 
f 735//432 736//432 413//432 
f 720//432 445//432 447//432 
f 708//432 469//432 471//432 
f 700//432 701//432 483//432 
f 698//432 699//432 487//432 
f 696//432 697//432 491//432 
f 493//432 495//432 695//432 
f 690//432 505//432 507//432 
f 680//432 681//432 523//432 
f 678//432 679//432 527//432 
f 677//432 676//432 531//432 
f 244//432 247//432 819//432 
f 247//432 249//432 818//432 
f 816//432 817//432 251//432 
f 815//432 255//432 257//432 
f 808//432 269//432 271//432 
f 803//432 279//432 281//432 
f 800//432 285//432 287//432 
f 782//432 321//432 323//432 
f 738//432 409//432 411//432 
f 714//432 457//432 459//432 
f 699//432 700//432 485//432 
f 695//432 696//432 493//432 
f 497//432 694//432 695//432 
f 497//432 499//432 693//432 
f 682//432 521//432 523//432 
f 678//432 529//432 531//432 
f 818//432 819//432 247//432 
f 816//432 253//432 255//432 
f 806//432 273//432 275//432 
f 798//432 289//432 291//432 
f 735//432 415//432 417//432 
f 698//432 489//432 491//432 
f 693//432 694//432 497//432 
f 680//432 525//432 527//432 
f 818//432 249//432 251//432 
f 801//432 283//432 285//432 
f 702//432 481//432 483//432 
f 693//432 499//432 501//432 
f 813//432 259//432 261//432 
f 695//432 495//432 497//432 
f 770//432 345//432 347//432 
f 819//432 677//432 244//432 
